M48
INCH,TZ
T1C0.016
T2C0.024
T3C0.028
T4C0.035
T5C0.039
T6C0.039
T7C0.040
T8C0.047
T9C0.130
%
G90
G05
T1
X39469Y-14371
X39469Y-21064
X39469Y-27757
X39469Y-41143
X39469Y-54528
X40355Y-42127
X44567Y-47599
X44685Y-20198
X45079Y-47599
X45276Y-24371
X45591Y-47599
X45709Y-25473
X45945Y-47048
X46042Y-47581
X46162Y-14371
X46162Y-21064
X46162Y-27757
X46536Y-18898
X47048Y-28938
X47244Y-41615
X47599Y-23032
X47914Y-46379
X51221Y-17284
X52323Y-37481
X52402Y-50828
X52855Y-14371
X52855Y-21064
X52855Y-27757
X52855Y-41143
X52855Y-54528
X53701Y-15591
X54331Y-41379
X55512Y-24056
X57362Y-48150
X59331Y-48426
X59725Y-21733
X64292Y-20473
X66240Y-14371
X66240Y-27757
X66240Y-41143
X66240Y-47835
X66240Y-54528
X67008Y-55513
X67126Y-42127
X67126Y-48820
X67244Y-29961
X67914Y-35237
X72481Y-46064
X72520Y-37875
X72717Y-52639
X72933Y-41143
X72933Y-47835
X72933Y-54528
X73622Y-21733
X73780Y-55710
X73819Y-49213
X79213Y-46497
X79626Y-14371
X79626Y-27757
X79626Y-41143
X79626Y-47835
X79626Y-54528
X80314Y-42167
X80355Y-29056
X80433Y-55513
X80473Y-15710
T2
X65551Y-37402
X65551Y-37902
X65551Y-38402
T3
X38977Y-16143
X38977Y-22835
X38977Y-29528
X38977Y-42914
X38977Y-56300
X39862Y-16241
X39862Y-22934
X39862Y-29627
X39862Y-43013
X39862Y-56398
X43377Y-47313
X44077Y-48913
X45577Y-49713
X45670Y-16143
X45670Y-22835
X45670Y-29528
X46555Y-16241
X46555Y-22934
X46555Y-29627
X49077Y-48513
X52362Y-16143
X52362Y-22835
X52362Y-29528
X52362Y-42914
X52362Y-56300
X53248Y-16241
X53248Y-22934
X53248Y-29627
X53248Y-43013
X53248Y-56398
X65748Y-16143
X65748Y-29528
X65748Y-42914
X65748Y-49607
X65748Y-56300
X66634Y-16241
X66634Y-29627
X66634Y-43013
X66634Y-49706
X66634Y-56398
X72441Y-42914
X72441Y-49607
X72441Y-56300
X73327Y-43013
X73327Y-49706
X73327Y-56398
X78729Y-56528
X79134Y-16143
X79134Y-29528
X79134Y-42914
X79134Y-49607
X79646Y-56524
X79893Y-43013
X80000Y-34253
X80020Y-16241
X80020Y-29627
X80020Y-49706
T4
X69488Y-39370
X71457Y-39370
X72835Y-39370
X74803Y-39370
T5
X57480Y-35433
X60827Y-35433
T6
X52362Y-39173
X56362Y-39173
X57480Y-39173
X58268Y-45803
X58268Y-49803
X61480Y-39173
X62992Y-39370
X62992Y-43370
X68110Y-36614
X72110Y-36614
T7
X49504Y-32283
X49504Y-33283
X50504Y-32283
X50504Y-33283
X51504Y-32283
X51504Y-33283
X52504Y-32283
X52504Y-33283
X53504Y-32283
X53504Y-33283
X54504Y-32283
X54504Y-33283
X55504Y-32283
X55504Y-33283
X56504Y-32283
X56504Y-33283
X57504Y-32283
X57504Y-33283
X58504Y-32283
X58504Y-33283
X59504Y-32283
X59504Y-33283
X60504Y-32283
X60504Y-33283
X61504Y-32283
X61504Y-33283
X62504Y-32283
X62504Y-33283
X63504Y-32283
X63504Y-33283
X64504Y-32283
X64504Y-33283
X65504Y-32283
X65504Y-33283
X66504Y-32283
X66504Y-33283
X67504Y-32283
X67504Y-33283
X68504Y-32283
X68504Y-33283
T8
X75772Y-34253
X76772Y-34253
T9
X37008Y-13387
X37008Y-57481
X81103Y-13387
X81103Y-57481
T0
M30
