M48
INCH,TZ
T1C0.031
%
G90
G05
T1
X38976Y-15354
X38976Y-22047
X38976Y-28740
X38976Y-42126
X38976Y-55512
X45669Y-15354
X45669Y-22047
X45669Y-28740
X52362Y-15354
X52362Y-22047
X52362Y-28740
X52362Y-42126
X52362Y-55512
X65748Y-15354
X65748Y-28740
X65748Y-42126
X65748Y-48819
X65748Y-55512
X72441Y-42126
X72441Y-48819
X72441Y-55512
X79134Y-15354
X79134Y-28740
X79134Y-42126
X79134Y-48819
X79134Y-55512
T0
M30
