G04 #@! TF.FileFunction,Legend,Top*
%FSLAX46Y46*%
G04 Gerber Fmt 4.6, Leading zero omitted, Abs format (unit mm)*
G04 Created by KiCad (PCBNEW 4.0.2-stable) date 7/30/2016 9:27:16 AM*
%MOMM*%
G01*
G04 APERTURE LIST*
%ADD10C,0.020000*%
%ADD11C,0.150000*%
%ADD12C,0.300000*%
%ADD13C,0.400000*%
%ADD14C,0.200000*%
G04 APERTURE END LIST*
D10*
D11*
X177002200Y-166007200D02*
X177002200Y-198007200D01*
X285002200Y-198007200D01*
X285002200Y-166007200D01*
X177002200Y-166007200D01*
D10*
D11*
X10000000Y-10000000D02*
X10000000Y-200007200D01*
X287002200Y-200007200D01*
X287002200Y-10000000D01*
X10000000Y-10000000D01*
D10*
D11*
X12000000Y-12000000D02*
X12000000Y-198007200D01*
X285002200Y-198007200D01*
X285002200Y-12000000D01*
X12000000Y-12000000D01*
D10*
D11*
X60000000Y-12000000D02*
X60000000Y-10000000D01*
D10*
D11*
X110000000Y-12000000D02*
X110000000Y-10000000D01*
D10*
D11*
X160000000Y-12000000D02*
X160000000Y-10000000D01*
D10*
D11*
X210000000Y-12000000D02*
X210000000Y-10000000D01*
D10*
D11*
X260000000Y-12000000D02*
X260000000Y-10000000D01*
D10*
D11*
X35990476Y-11588095D02*
X35247619Y-11588095D01*
X35619048Y-11588095D02*
X35619048Y-10288095D01*
X35495238Y-10473810D01*
X35371429Y-10597619D01*
X35247619Y-10659524D01*
D10*
D11*
X85247619Y-10411905D02*
X85309524Y-10350000D01*
X85433333Y-10288095D01*
X85742857Y-10288095D01*
X85866667Y-10350000D01*
X85928571Y-10411905D01*
X85990476Y-10535714D01*
X85990476Y-10659524D01*
X85928571Y-10845238D01*
X85185714Y-11588095D01*
X85990476Y-11588095D01*
D10*
D11*
X135185714Y-10288095D02*
X135990476Y-10288095D01*
X135557143Y-10783333D01*
X135742857Y-10783333D01*
X135866667Y-10845238D01*
X135928571Y-10907143D01*
X135990476Y-11030952D01*
X135990476Y-11340476D01*
X135928571Y-11464286D01*
X135866667Y-11526190D01*
X135742857Y-11588095D01*
X135371429Y-11588095D01*
X135247619Y-11526190D01*
X135185714Y-11464286D01*
D10*
D11*
X185866667Y-10721429D02*
X185866667Y-11588095D01*
X185557143Y-10226190D02*
X185247619Y-11154762D01*
X186052381Y-11154762D01*
D10*
D11*
X235928571Y-10288095D02*
X235309524Y-10288095D01*
X235247619Y-10907143D01*
X235309524Y-10845238D01*
X235433333Y-10783333D01*
X235742857Y-10783333D01*
X235866667Y-10845238D01*
X235928571Y-10907143D01*
X235990476Y-11030952D01*
X235990476Y-11340476D01*
X235928571Y-11464286D01*
X235866667Y-11526190D01*
X235742857Y-11588095D01*
X235433333Y-11588095D01*
X235309524Y-11526190D01*
X235247619Y-11464286D01*
D10*
D11*
X285866667Y-10288095D02*
X285619048Y-10288095D01*
X285495238Y-10350000D01*
X285433333Y-10411905D01*
X285309524Y-10597619D01*
X285247619Y-10845238D01*
X285247619Y-11340476D01*
X285309524Y-11464286D01*
X285371429Y-11526190D01*
X285495238Y-11588095D01*
X285742857Y-11588095D01*
X285866667Y-11526190D01*
X285928571Y-11464286D01*
X285990476Y-11340476D01*
X285990476Y-11030952D01*
X285928571Y-10907143D01*
X285866667Y-10845238D01*
X285742857Y-10783333D01*
X285495238Y-10783333D01*
X285371429Y-10845238D01*
X285309524Y-10907143D01*
X285247619Y-11030952D01*
D10*
D11*
X60000000Y-198007200D02*
X60000000Y-200007200D01*
D10*
D11*
X110000000Y-198007200D02*
X110000000Y-200007200D01*
D10*
D11*
X160000000Y-198007200D02*
X160000000Y-200007200D01*
D10*
D11*
X210000000Y-198007200D02*
X210000000Y-200007200D01*
D10*
D11*
X260000000Y-198007200D02*
X260000000Y-200007200D01*
D10*
D11*
X35990476Y-199595295D02*
X35247619Y-199595295D01*
X35619048Y-199595295D02*
X35619048Y-198295295D01*
X35495238Y-198481010D01*
X35371429Y-198604819D01*
X35247619Y-198666724D01*
D10*
D11*
X85247619Y-198419105D02*
X85309524Y-198357200D01*
X85433333Y-198295295D01*
X85742857Y-198295295D01*
X85866667Y-198357200D01*
X85928571Y-198419105D01*
X85990476Y-198542914D01*
X85990476Y-198666724D01*
X85928571Y-198852438D01*
X85185714Y-199595295D01*
X85990476Y-199595295D01*
D10*
D11*
X135185714Y-198295295D02*
X135990476Y-198295295D01*
X135557143Y-198790533D01*
X135742857Y-198790533D01*
X135866667Y-198852438D01*
X135928571Y-198914343D01*
X135990476Y-199038152D01*
X135990476Y-199347676D01*
X135928571Y-199471486D01*
X135866667Y-199533390D01*
X135742857Y-199595295D01*
X135371429Y-199595295D01*
X135247619Y-199533390D01*
X135185714Y-199471486D01*
D10*
D11*
X185866667Y-198728629D02*
X185866667Y-199595295D01*
X185557143Y-198233390D02*
X185247619Y-199161962D01*
X186052381Y-199161962D01*
D10*
D11*
X235928571Y-198295295D02*
X235309524Y-198295295D01*
X235247619Y-198914343D01*
X235309524Y-198852438D01*
X235433333Y-198790533D01*
X235742857Y-198790533D01*
X235866667Y-198852438D01*
X235928571Y-198914343D01*
X235990476Y-199038152D01*
X235990476Y-199347676D01*
X235928571Y-199471486D01*
X235866667Y-199533390D01*
X235742857Y-199595295D01*
X235433333Y-199595295D01*
X235309524Y-199533390D01*
X235247619Y-199471486D01*
D10*
D11*
X285866667Y-198295295D02*
X285619048Y-198295295D01*
X285495238Y-198357200D01*
X285433333Y-198419105D01*
X285309524Y-198604819D01*
X285247619Y-198852438D01*
X285247619Y-199347676D01*
X285309524Y-199471486D01*
X285371429Y-199533390D01*
X285495238Y-199595295D01*
X285742857Y-199595295D01*
X285866667Y-199533390D01*
X285928571Y-199471486D01*
X285990476Y-199347676D01*
X285990476Y-199038152D01*
X285928571Y-198914343D01*
X285866667Y-198852438D01*
X285742857Y-198790533D01*
X285495238Y-198790533D01*
X285371429Y-198852438D01*
X285309524Y-198914343D01*
X285247619Y-199038152D01*
D10*
D11*
X10000000Y-60000000D02*
X12000000Y-60000000D01*
D10*
D11*
X10000000Y-110000000D02*
X12000000Y-110000000D01*
D10*
D11*
X10000000Y-160000000D02*
X12000000Y-160000000D01*
D10*
D11*
X10690476Y-35216667D02*
X11309524Y-35216667D01*
X10566667Y-35588095D02*
X11000000Y-34288095D01*
X11433333Y-35588095D01*
D10*
D11*
X11092857Y-84907143D02*
X11278571Y-84969048D01*
X11340476Y-85030952D01*
X11402381Y-85154762D01*
X11402381Y-85340476D01*
X11340476Y-85464286D01*
X11278571Y-85526190D01*
X11154762Y-85588095D01*
X10659524Y-85588095D01*
X10659524Y-84288095D01*
X11092857Y-84288095D01*
X11216667Y-84350000D01*
X11278571Y-84411905D01*
X11340476Y-84535714D01*
X11340476Y-84659524D01*
X11278571Y-84783333D01*
X11216667Y-84845238D01*
X11092857Y-84907143D01*
X10659524Y-84907143D01*
D10*
D11*
X11402381Y-135464286D02*
X11340476Y-135526190D01*
X11154762Y-135588095D01*
X11030952Y-135588095D01*
X10845238Y-135526190D01*
X10721429Y-135402381D01*
X10659524Y-135278571D01*
X10597619Y-135030952D01*
X10597619Y-134845238D01*
X10659524Y-134597619D01*
X10721429Y-134473810D01*
X10845238Y-134350000D01*
X11030952Y-134288095D01*
X11154762Y-134288095D01*
X11340476Y-134350000D01*
X11402381Y-134411905D01*
D10*
D11*
X10659524Y-185588095D02*
X10659524Y-184288095D01*
X10969048Y-184288095D01*
X11154762Y-184350000D01*
X11278571Y-184473810D01*
X11340476Y-184597619D01*
X11402381Y-184845238D01*
X11402381Y-185030952D01*
X11340476Y-185278571D01*
X11278571Y-185402381D01*
X11154762Y-185526190D01*
X10969048Y-185588095D01*
X10659524Y-185588095D01*
D10*
D11*
X287002200Y-60000000D02*
X285002200Y-60000000D01*
D10*
D11*
X287002200Y-110000000D02*
X285002200Y-110000000D01*
D10*
D11*
X287002200Y-160000000D02*
X285002200Y-160000000D01*
D10*
D11*
X285692676Y-35216667D02*
X286311724Y-35216667D01*
X285568867Y-35588095D02*
X286002200Y-34288095D01*
X286435533Y-35588095D01*
D10*
D11*
X286095057Y-84907143D02*
X286280771Y-84969048D01*
X286342676Y-85030952D01*
X286404581Y-85154762D01*
X286404581Y-85340476D01*
X286342676Y-85464286D01*
X286280771Y-85526190D01*
X286156962Y-85588095D01*
X285661724Y-85588095D01*
X285661724Y-84288095D01*
X286095057Y-84288095D01*
X286218867Y-84350000D01*
X286280771Y-84411905D01*
X286342676Y-84535714D01*
X286342676Y-84659524D01*
X286280771Y-84783333D01*
X286218867Y-84845238D01*
X286095057Y-84907143D01*
X285661724Y-84907143D01*
D10*
D11*
X286404581Y-135464286D02*
X286342676Y-135526190D01*
X286156962Y-135588095D01*
X286033152Y-135588095D01*
X285847438Y-135526190D01*
X285723629Y-135402381D01*
X285661724Y-135278571D01*
X285599819Y-135030952D01*
X285599819Y-134845238D01*
X285661724Y-134597619D01*
X285723629Y-134473810D01*
X285847438Y-134350000D01*
X286033152Y-134288095D01*
X286156962Y-134288095D01*
X286342676Y-134350000D01*
X286404581Y-134411905D01*
D10*
D11*
X285661724Y-185588095D02*
X285661724Y-184288095D01*
X285971248Y-184288095D01*
X286156962Y-184350000D01*
X286280771Y-184473810D01*
X286342676Y-184597619D01*
X286404581Y-184845238D01*
X286404581Y-185030952D01*
X286342676Y-185278571D01*
X286280771Y-185402381D01*
X286156962Y-185526190D01*
X285971248Y-185588095D01*
X285661724Y-185588095D01*
D10*
D11*
X200359343Y-193785771D02*
X200359343Y-192285771D01*
X200716486Y-192285771D01*
X200930771Y-192357200D01*
X201073629Y-192500057D01*
X201145057Y-192642914D01*
X201216486Y-192928629D01*
X201216486Y-193142914D01*
X201145057Y-193428629D01*
X201073629Y-193571486D01*
X200930771Y-193714343D01*
X200716486Y-193785771D01*
X200359343Y-193785771D01*
X202502200Y-193785771D02*
X202502200Y-193000057D01*
X202430771Y-192857200D01*
X202287914Y-192785771D01*
X202002200Y-192785771D01*
X201859343Y-192857200D01*
X202502200Y-193714343D02*
X202359343Y-193785771D01*
X202002200Y-193785771D01*
X201859343Y-193714343D01*
X201787914Y-193571486D01*
X201787914Y-193428629D01*
X201859343Y-193285771D01*
X202002200Y-193214343D01*
X202359343Y-193214343D01*
X202502200Y-193142914D01*
X203002200Y-192785771D02*
X203573629Y-192785771D01*
X203216486Y-192285771D02*
X203216486Y-193571486D01*
X203287914Y-193714343D01*
X203430772Y-193785771D01*
X203573629Y-193785771D01*
X204645057Y-193714343D02*
X204502200Y-193785771D01*
X204216486Y-193785771D01*
X204073629Y-193714343D01*
X204002200Y-193571486D01*
X204002200Y-193000057D01*
X204073629Y-192857200D01*
X204216486Y-192785771D01*
X204502200Y-192785771D01*
X204645057Y-192857200D01*
X204716486Y-193000057D01*
X204716486Y-193142914D01*
X204002200Y-193285771D01*
X205359343Y-193642914D02*
X205430771Y-193714343D01*
X205359343Y-193785771D01*
X205287914Y-193714343D01*
X205359343Y-193642914D01*
X205359343Y-193785771D01*
X205359343Y-192857200D02*
X205430771Y-192928629D01*
X205359343Y-193000057D01*
X205287914Y-192928629D01*
X205359343Y-192857200D01*
X205359343Y-193000057D01*
D10*
D11*
X177002200Y-194507200D02*
X285002200Y-194507200D01*
D10*
D11*
X178359343Y-196585771D02*
X178359343Y-195085771D01*
X179216486Y-196585771D02*
X178573629Y-195728629D01*
X179216486Y-195085771D02*
X178359343Y-195942914D01*
X179859343Y-196585771D02*
X179859343Y-195585771D01*
X179859343Y-195085771D02*
X179787914Y-195157200D01*
X179859343Y-195228629D01*
X179930771Y-195157200D01*
X179859343Y-195085771D01*
X179859343Y-195228629D01*
X181430772Y-196442914D02*
X181359343Y-196514343D01*
X181145057Y-196585771D01*
X181002200Y-196585771D01*
X180787915Y-196514343D01*
X180645057Y-196371486D01*
X180573629Y-196228629D01*
X180502200Y-195942914D01*
X180502200Y-195728629D01*
X180573629Y-195442914D01*
X180645057Y-195300057D01*
X180787915Y-195157200D01*
X181002200Y-195085771D01*
X181145057Y-195085771D01*
X181359343Y-195157200D01*
X181430772Y-195228629D01*
X182716486Y-196585771D02*
X182716486Y-195800057D01*
X182645057Y-195657200D01*
X182502200Y-195585771D01*
X182216486Y-195585771D01*
X182073629Y-195657200D01*
X182716486Y-196514343D02*
X182573629Y-196585771D01*
X182216486Y-196585771D01*
X182073629Y-196514343D01*
X182002200Y-196371486D01*
X182002200Y-196228629D01*
X182073629Y-196085771D01*
X182216486Y-196014343D01*
X182573629Y-196014343D01*
X182716486Y-195942914D01*
X184073629Y-196585771D02*
X184073629Y-195085771D01*
X184073629Y-196514343D02*
X183930772Y-196585771D01*
X183645058Y-196585771D01*
X183502200Y-196514343D01*
X183430772Y-196442914D01*
X183359343Y-196300057D01*
X183359343Y-195871486D01*
X183430772Y-195728629D01*
X183502200Y-195657200D01*
X183645058Y-195585771D01*
X183930772Y-195585771D01*
X184073629Y-195657200D01*
X185930772Y-195800057D02*
X186430772Y-195800057D01*
X186645058Y-196585771D02*
X185930772Y-196585771D01*
X185930772Y-195085771D01*
X186645058Y-195085771D01*
X187287915Y-196442914D02*
X187359343Y-196514343D01*
X187287915Y-196585771D01*
X187216486Y-196514343D01*
X187287915Y-196442914D01*
X187287915Y-196585771D01*
X188002201Y-196585771D02*
X188002201Y-195085771D01*
X188359344Y-195085771D01*
X188573629Y-195157200D01*
X188716487Y-195300057D01*
X188787915Y-195442914D01*
X188859344Y-195728629D01*
X188859344Y-195942914D01*
X188787915Y-196228629D01*
X188716487Y-196371486D01*
X188573629Y-196514343D01*
X188359344Y-196585771D01*
X188002201Y-196585771D01*
X189502201Y-196442914D02*
X189573629Y-196514343D01*
X189502201Y-196585771D01*
X189430772Y-196514343D01*
X189502201Y-196442914D01*
X189502201Y-196585771D01*
X190145058Y-196157200D02*
X190859344Y-196157200D01*
X190002201Y-196585771D02*
X190502201Y-195085771D01*
X191002201Y-196585771D01*
X191502201Y-196442914D02*
X191573629Y-196514343D01*
X191502201Y-196585771D01*
X191430772Y-196514343D01*
X191502201Y-196442914D01*
X191502201Y-196585771D01*
X194502201Y-196585771D02*
X194502201Y-195085771D01*
X194645058Y-196014343D02*
X195073629Y-196585771D01*
X195073629Y-195585771D02*
X194502201Y-196157200D01*
X195716487Y-196585771D02*
X195716487Y-195585771D01*
X195716487Y-195085771D02*
X195645058Y-195157200D01*
X195716487Y-195228629D01*
X195787915Y-195157200D01*
X195716487Y-195085771D01*
X195716487Y-195228629D01*
X197073630Y-196514343D02*
X196930773Y-196585771D01*
X196645059Y-196585771D01*
X196502201Y-196514343D01*
X196430773Y-196442914D01*
X196359344Y-196300057D01*
X196359344Y-195871486D01*
X196430773Y-195728629D01*
X196502201Y-195657200D01*
X196645059Y-195585771D01*
X196930773Y-195585771D01*
X197073630Y-195657200D01*
X198359344Y-196585771D02*
X198359344Y-195800057D01*
X198287915Y-195657200D01*
X198145058Y-195585771D01*
X197859344Y-195585771D01*
X197716487Y-195657200D01*
X198359344Y-196514343D02*
X198216487Y-196585771D01*
X197859344Y-196585771D01*
X197716487Y-196514343D01*
X197645058Y-196371486D01*
X197645058Y-196228629D01*
X197716487Y-196085771D01*
X197859344Y-196014343D01*
X198216487Y-196014343D01*
X198359344Y-195942914D01*
X199716487Y-196585771D02*
X199716487Y-195085771D01*
X199716487Y-196514343D02*
X199573630Y-196585771D01*
X199287916Y-196585771D01*
X199145058Y-196514343D01*
X199073630Y-196442914D01*
X199002201Y-196300057D01*
X199002201Y-195871486D01*
X199073630Y-195728629D01*
X199145058Y-195657200D01*
X199287916Y-195585771D01*
X199573630Y-195585771D01*
X199716487Y-195657200D01*
X202216487Y-195585771D02*
X202216487Y-196585771D01*
X201859344Y-195014343D02*
X201502201Y-196085771D01*
X202430773Y-196085771D01*
X203002201Y-196442914D02*
X203073629Y-196514343D01*
X203002201Y-196585771D01*
X202930772Y-196514343D01*
X203002201Y-196442914D01*
X203002201Y-196585771D01*
X204002201Y-195085771D02*
X204145058Y-195085771D01*
X204287915Y-195157200D01*
X204359344Y-195228629D01*
X204430773Y-195371486D01*
X204502201Y-195657200D01*
X204502201Y-196014343D01*
X204430773Y-196300057D01*
X204359344Y-196442914D01*
X204287915Y-196514343D01*
X204145058Y-196585771D01*
X204002201Y-196585771D01*
X203859344Y-196514343D01*
X203787915Y-196442914D01*
X203716487Y-196300057D01*
X203645058Y-196014343D01*
X203645058Y-195657200D01*
X203716487Y-195371486D01*
X203787915Y-195228629D01*
X203859344Y-195157200D01*
X204002201Y-195085771D01*
X205145058Y-196442914D02*
X205216486Y-196514343D01*
X205145058Y-196585771D01*
X205073629Y-196514343D01*
X205145058Y-196442914D01*
X205145058Y-196585771D01*
X205787915Y-195228629D02*
X205859344Y-195157200D01*
X206002201Y-195085771D01*
X206359344Y-195085771D01*
X206502201Y-195157200D01*
X206573630Y-195228629D01*
X206645058Y-195371486D01*
X206645058Y-195514343D01*
X206573630Y-195728629D01*
X205716487Y-196585771D01*
X206645058Y-196585771D01*
X207287915Y-196014343D02*
X208430772Y-196014343D01*
X209073629Y-196514343D02*
X209216486Y-196585771D01*
X209502201Y-196585771D01*
X209645058Y-196514343D01*
X209716486Y-196371486D01*
X209716486Y-196300057D01*
X209645058Y-196157200D01*
X209502201Y-196085771D01*
X209287915Y-196085771D01*
X209145058Y-196014343D01*
X209073629Y-195871486D01*
X209073629Y-195800057D01*
X209145058Y-195657200D01*
X209287915Y-195585771D01*
X209502201Y-195585771D01*
X209645058Y-195657200D01*
X210145058Y-195585771D02*
X210716487Y-195585771D01*
X210359344Y-195085771D02*
X210359344Y-196371486D01*
X210430772Y-196514343D01*
X210573630Y-196585771D01*
X210716487Y-196585771D01*
X211859344Y-196585771D02*
X211859344Y-195800057D01*
X211787915Y-195657200D01*
X211645058Y-195585771D01*
X211359344Y-195585771D01*
X211216487Y-195657200D01*
X211859344Y-196514343D02*
X211716487Y-196585771D01*
X211359344Y-196585771D01*
X211216487Y-196514343D01*
X211145058Y-196371486D01*
X211145058Y-196228629D01*
X211216487Y-196085771D01*
X211359344Y-196014343D01*
X211716487Y-196014343D01*
X211859344Y-195942914D01*
X212573630Y-196585771D02*
X212573630Y-195085771D01*
X212573630Y-195657200D02*
X212716487Y-195585771D01*
X213002201Y-195585771D01*
X213145058Y-195657200D01*
X213216487Y-195728629D01*
X213287916Y-195871486D01*
X213287916Y-196300057D01*
X213216487Y-196442914D01*
X213145058Y-196514343D01*
X213002201Y-196585771D01*
X212716487Y-196585771D01*
X212573630Y-196514343D01*
X214145059Y-196585771D02*
X214002201Y-196514343D01*
X213930773Y-196371486D01*
X213930773Y-195085771D01*
X215287915Y-196514343D02*
X215145058Y-196585771D01*
X214859344Y-196585771D01*
X214716487Y-196514343D01*
X214645058Y-196371486D01*
X214645058Y-195800057D01*
X214716487Y-195657200D01*
X214859344Y-195585771D01*
X215145058Y-195585771D01*
X215287915Y-195657200D01*
X215359344Y-195800057D01*
X215359344Y-195942914D01*
X214645058Y-196085771D01*
D10*
D11*
X177002200Y-191507200D02*
X285002200Y-191507200D01*
D10*
D12*
X264216486Y-193785771D02*
X263716486Y-193071486D01*
X263359343Y-193785771D02*
X263359343Y-192285771D01*
X263930771Y-192285771D01*
X264073629Y-192357200D01*
X264145057Y-192428629D01*
X264216486Y-192571486D01*
X264216486Y-192785771D01*
X264145057Y-192928629D01*
X264073629Y-193000057D01*
X263930771Y-193071486D01*
X263359343Y-193071486D01*
X265430771Y-193714343D02*
X265287914Y-193785771D01*
X265002200Y-193785771D01*
X264859343Y-193714343D01*
X264787914Y-193571486D01*
X264787914Y-193000057D01*
X264859343Y-192857200D01*
X265002200Y-192785771D01*
X265287914Y-192785771D01*
X265430771Y-192857200D01*
X265502200Y-193000057D01*
X265502200Y-193142914D01*
X264787914Y-193285771D01*
X266002200Y-192785771D02*
X266359343Y-193785771D01*
X266716485Y-192785771D01*
X267287914Y-193642914D02*
X267359342Y-193714343D01*
X267287914Y-193785771D01*
X267216485Y-193714343D01*
X267287914Y-193642914D01*
X267287914Y-193785771D01*
X267287914Y-192857200D02*
X267359342Y-192928629D01*
X267287914Y-193000057D01*
X267216485Y-192928629D01*
X267287914Y-192857200D01*
X267287914Y-193000057D01*
D10*
D11*
X178287914Y-193714343D02*
X178502200Y-193785771D01*
X178859343Y-193785771D01*
X179002200Y-193714343D01*
X179073629Y-193642914D01*
X179145057Y-193500057D01*
X179145057Y-193357200D01*
X179073629Y-193214343D01*
X179002200Y-193142914D01*
X178859343Y-193071486D01*
X178573629Y-193000057D01*
X178430771Y-192928629D01*
X178359343Y-192857200D01*
X178287914Y-192714343D01*
X178287914Y-192571486D01*
X178359343Y-192428629D01*
X178430771Y-192357200D01*
X178573629Y-192285771D01*
X178930771Y-192285771D01*
X179145057Y-192357200D01*
X179787914Y-193785771D02*
X179787914Y-192785771D01*
X179787914Y-192285771D02*
X179716485Y-192357200D01*
X179787914Y-192428629D01*
X179859342Y-192357200D01*
X179787914Y-192285771D01*
X179787914Y-192428629D01*
X180359343Y-192785771D02*
X181145057Y-192785771D01*
X180359343Y-193785771D01*
X181145057Y-193785771D01*
X182287914Y-193714343D02*
X182145057Y-193785771D01*
X181859343Y-193785771D01*
X181716486Y-193714343D01*
X181645057Y-193571486D01*
X181645057Y-193000057D01*
X181716486Y-192857200D01*
X181859343Y-192785771D01*
X182145057Y-192785771D01*
X182287914Y-192857200D01*
X182359343Y-193000057D01*
X182359343Y-193142914D01*
X181645057Y-193285771D01*
X183002200Y-193642914D02*
X183073628Y-193714343D01*
X183002200Y-193785771D01*
X182930771Y-193714343D01*
X183002200Y-193642914D01*
X183002200Y-193785771D01*
X183002200Y-192857200D02*
X183073628Y-192928629D01*
X183002200Y-193000057D01*
X182930771Y-192928629D01*
X183002200Y-192857200D01*
X183002200Y-193000057D01*
X184787914Y-193357200D02*
X185502200Y-193357200D01*
X184645057Y-193785771D02*
X185145057Y-192285771D01*
X185645057Y-193785771D01*
X186787914Y-192785771D02*
X186787914Y-193785771D01*
X186430771Y-192214343D02*
X186073628Y-193285771D01*
X187002200Y-193285771D01*
D10*
D11*
X263359343Y-196585771D02*
X263359343Y-195085771D01*
X264716486Y-196585771D02*
X264716486Y-195085771D01*
X264716486Y-196514343D02*
X264573629Y-196585771D01*
X264287915Y-196585771D01*
X264145057Y-196514343D01*
X264073629Y-196442914D01*
X264002200Y-196300057D01*
X264002200Y-195871486D01*
X264073629Y-195728629D01*
X264145057Y-195657200D01*
X264287915Y-195585771D01*
X264573629Y-195585771D01*
X264716486Y-195657200D01*
X265430772Y-196442914D02*
X265502200Y-196514343D01*
X265430772Y-196585771D01*
X265359343Y-196514343D01*
X265430772Y-196442914D01*
X265430772Y-196585771D01*
X265430772Y-195657200D02*
X265502200Y-195728629D01*
X265430772Y-195800057D01*
X265359343Y-195728629D01*
X265430772Y-195657200D01*
X265430772Y-195800057D01*
X268073629Y-196585771D02*
X267216486Y-196585771D01*
X267645058Y-196585771D02*
X267645058Y-195085771D01*
X267502201Y-195300057D01*
X267359343Y-195442914D01*
X267216486Y-195514343D01*
X269787914Y-195014343D02*
X268502200Y-196942914D01*
X271073629Y-196585771D02*
X270216486Y-196585771D01*
X270645058Y-196585771D02*
X270645058Y-195085771D01*
X270502201Y-195300057D01*
X270359343Y-195442914D01*
X270216486Y-195514343D01*
D10*
D11*
X177002200Y-187507200D02*
X285002200Y-187507200D01*
D10*
D13*
X178454581Y-188211962D02*
X179597438Y-188211962D01*
X178776010Y-190211962D02*
X179026010Y-188211962D01*
X180014105Y-190211962D02*
X180180771Y-188878629D01*
X180264105Y-188211962D02*
X180156962Y-188307200D01*
X180240295Y-188402438D01*
X180347439Y-188307200D01*
X180264105Y-188211962D01*
X180240295Y-188402438D01*
X180847438Y-188878629D02*
X181609343Y-188878629D01*
X181216486Y-188211962D02*
X181002200Y-189926248D01*
X181073630Y-190116724D01*
X181252201Y-190211962D01*
X181442677Y-190211962D01*
X182395058Y-190211962D02*
X182216487Y-190116724D01*
X182145057Y-189926248D01*
X182359343Y-188211962D01*
X183930772Y-190116724D02*
X183728391Y-190211962D01*
X183347439Y-190211962D01*
X183168867Y-190116724D01*
X183097438Y-189926248D01*
X183192676Y-189164343D01*
X183311724Y-188973867D01*
X183514105Y-188878629D01*
X183895057Y-188878629D01*
X184073629Y-188973867D01*
X184145057Y-189164343D01*
X184121248Y-189354819D01*
X183145057Y-189545295D01*
X184895057Y-190021486D02*
X184978392Y-190116724D01*
X184871248Y-190211962D01*
X184787915Y-190116724D01*
X184895057Y-190021486D01*
X184871248Y-190211962D01*
X185026010Y-188973867D02*
X185109344Y-189069105D01*
X185002200Y-189164343D01*
X184918867Y-189069105D01*
X185026010Y-188973867D01*
X185002200Y-189164343D01*
D10*
D11*
X178859343Y-185600057D02*
X178359343Y-185600057D01*
X178359343Y-186385771D02*
X178359343Y-184885771D01*
X179073629Y-184885771D01*
X179645057Y-186385771D02*
X179645057Y-185385771D01*
X179645057Y-184885771D02*
X179573628Y-184957200D01*
X179645057Y-185028629D01*
X179716485Y-184957200D01*
X179645057Y-184885771D01*
X179645057Y-185028629D01*
X180573629Y-186385771D02*
X180430771Y-186314343D01*
X180359343Y-186171486D01*
X180359343Y-184885771D01*
X181716485Y-186314343D02*
X181573628Y-186385771D01*
X181287914Y-186385771D01*
X181145057Y-186314343D01*
X181073628Y-186171486D01*
X181073628Y-185600057D01*
X181145057Y-185457200D01*
X181287914Y-185385771D01*
X181573628Y-185385771D01*
X181716485Y-185457200D01*
X181787914Y-185600057D01*
X181787914Y-185742914D01*
X181073628Y-185885771D01*
X182430771Y-186242914D02*
X182502199Y-186314343D01*
X182430771Y-186385771D01*
X182359342Y-186314343D01*
X182430771Y-186242914D01*
X182430771Y-186385771D01*
X182430771Y-185457200D02*
X182502199Y-185528629D01*
X182430771Y-185600057D01*
X182359342Y-185528629D01*
X182430771Y-185457200D01*
X182430771Y-185600057D01*
X184287914Y-184885771D02*
X184287914Y-186100057D01*
X184359342Y-186242914D01*
X184430771Y-186314343D01*
X184573628Y-186385771D01*
X184859342Y-186385771D01*
X185002200Y-186314343D01*
X185073628Y-186242914D01*
X185145057Y-186100057D01*
X185145057Y-184885771D01*
X185787914Y-186314343D02*
X186002200Y-186385771D01*
X186359343Y-186385771D01*
X186502200Y-186314343D01*
X186573629Y-186242914D01*
X186645057Y-186100057D01*
X186645057Y-185957200D01*
X186573629Y-185814343D01*
X186502200Y-185742914D01*
X186359343Y-185671486D01*
X186073629Y-185600057D01*
X185930771Y-185528629D01*
X185859343Y-185457200D01*
X185787914Y-185314343D01*
X185787914Y-185171486D01*
X185859343Y-185028629D01*
X185930771Y-184957200D01*
X186073629Y-184885771D01*
X186430771Y-184885771D01*
X186645057Y-184957200D01*
X188145057Y-186242914D02*
X188073628Y-186314343D01*
X187859342Y-186385771D01*
X187716485Y-186385771D01*
X187502200Y-186314343D01*
X187359342Y-186171486D01*
X187287914Y-186028629D01*
X187216485Y-185742914D01*
X187216485Y-185528629D01*
X187287914Y-185242914D01*
X187359342Y-185100057D01*
X187502200Y-184957200D01*
X187716485Y-184885771D01*
X187859342Y-184885771D01*
X188073628Y-184957200D01*
X188145057Y-185028629D01*
X188716485Y-185957200D02*
X189430771Y-185957200D01*
X188573628Y-186385771D02*
X189073628Y-184885771D01*
X189573628Y-186385771D01*
X190073628Y-186385771D02*
X190073628Y-184885771D01*
X190573628Y-185957200D01*
X191073628Y-184885771D01*
X191073628Y-186385771D01*
X191787914Y-186242914D02*
X191859342Y-186314343D01*
X191787914Y-186385771D01*
X191716485Y-186314343D01*
X191787914Y-186242914D01*
X191787914Y-186385771D01*
X192502200Y-186385771D02*
X192502200Y-184885771D01*
X192645057Y-185814343D02*
X193073628Y-186385771D01*
X193073628Y-185385771D02*
X192502200Y-185957200D01*
X193716486Y-186385771D02*
X193716486Y-185385771D01*
X193716486Y-184885771D02*
X193645057Y-184957200D01*
X193716486Y-185028629D01*
X193787914Y-184957200D01*
X193716486Y-184885771D01*
X193716486Y-185028629D01*
X195073629Y-186314343D02*
X194930772Y-186385771D01*
X194645058Y-186385771D01*
X194502200Y-186314343D01*
X194430772Y-186242914D01*
X194359343Y-186100057D01*
X194359343Y-185671486D01*
X194430772Y-185528629D01*
X194502200Y-185457200D01*
X194645058Y-185385771D01*
X194930772Y-185385771D01*
X195073629Y-185457200D01*
X196359343Y-186385771D02*
X196359343Y-185600057D01*
X196287914Y-185457200D01*
X196145057Y-185385771D01*
X195859343Y-185385771D01*
X195716486Y-185457200D01*
X196359343Y-186314343D02*
X196216486Y-186385771D01*
X195859343Y-186385771D01*
X195716486Y-186314343D01*
X195645057Y-186171486D01*
X195645057Y-186028629D01*
X195716486Y-185885771D01*
X195859343Y-185814343D01*
X196216486Y-185814343D01*
X196359343Y-185742914D01*
X197716486Y-186385771D02*
X197716486Y-184885771D01*
X197716486Y-186314343D02*
X197573629Y-186385771D01*
X197287915Y-186385771D01*
X197145057Y-186314343D01*
X197073629Y-186242914D01*
X197002200Y-186100057D01*
X197002200Y-185671486D01*
X197073629Y-185528629D01*
X197145057Y-185457200D01*
X197287915Y-185385771D01*
X197573629Y-185385771D01*
X197716486Y-185457200D01*
X198073629Y-186528629D02*
X199216486Y-186528629D01*
X199573629Y-185385771D02*
X199573629Y-186885771D01*
X199573629Y-185457200D02*
X199716486Y-185385771D01*
X200002200Y-185385771D01*
X200145057Y-185457200D01*
X200216486Y-185528629D01*
X200287915Y-185671486D01*
X200287915Y-186100057D01*
X200216486Y-186242914D01*
X200145057Y-186314343D01*
X200002200Y-186385771D01*
X199716486Y-186385771D01*
X199573629Y-186314343D01*
X201573629Y-186314343D02*
X201430772Y-186385771D01*
X201145058Y-186385771D01*
X201002200Y-186314343D01*
X200930772Y-186242914D01*
X200859343Y-186100057D01*
X200859343Y-185671486D01*
X200930772Y-185528629D01*
X201002200Y-185457200D01*
X201145058Y-185385771D01*
X201430772Y-185385771D01*
X201573629Y-185457200D01*
X202216486Y-186385771D02*
X202216486Y-184885771D01*
X202216486Y-185457200D02*
X202359343Y-185385771D01*
X202645057Y-185385771D01*
X202787914Y-185457200D01*
X202859343Y-185528629D01*
X202930772Y-185671486D01*
X202930772Y-186100057D01*
X202859343Y-186242914D01*
X202787914Y-186314343D01*
X202645057Y-186385771D01*
X202359343Y-186385771D01*
X202216486Y-186314343D01*
D10*
D11*
X177002200Y-181507200D02*
X285002200Y-181507200D01*
D10*
D11*
X178287914Y-183614343D02*
X178502200Y-183685771D01*
X178859343Y-183685771D01*
X179002200Y-183614343D01*
X179073629Y-183542914D01*
X179145057Y-183400057D01*
X179145057Y-183257200D01*
X179073629Y-183114343D01*
X179002200Y-183042914D01*
X178859343Y-182971486D01*
X178573629Y-182900057D01*
X178430771Y-182828629D01*
X178359343Y-182757200D01*
X178287914Y-182614343D01*
X178287914Y-182471486D01*
X178359343Y-182328629D01*
X178430771Y-182257200D01*
X178573629Y-182185771D01*
X178930771Y-182185771D01*
X179145057Y-182257200D01*
X179787914Y-183685771D02*
X179787914Y-182185771D01*
X180430771Y-183685771D02*
X180430771Y-182900057D01*
X180359342Y-182757200D01*
X180216485Y-182685771D01*
X180002200Y-182685771D01*
X179859342Y-182757200D01*
X179787914Y-182828629D01*
X181716485Y-183614343D02*
X181573628Y-183685771D01*
X181287914Y-183685771D01*
X181145057Y-183614343D01*
X181073628Y-183471486D01*
X181073628Y-182900057D01*
X181145057Y-182757200D01*
X181287914Y-182685771D01*
X181573628Y-182685771D01*
X181716485Y-182757200D01*
X181787914Y-182900057D01*
X181787914Y-183042914D01*
X181073628Y-183185771D01*
X183002199Y-183614343D02*
X182859342Y-183685771D01*
X182573628Y-183685771D01*
X182430771Y-183614343D01*
X182359342Y-183471486D01*
X182359342Y-182900057D01*
X182430771Y-182757200D01*
X182573628Y-182685771D01*
X182859342Y-182685771D01*
X183002199Y-182757200D01*
X183073628Y-182900057D01*
X183073628Y-183042914D01*
X182359342Y-183185771D01*
X183502199Y-182685771D02*
X184073628Y-182685771D01*
X183716485Y-182185771D02*
X183716485Y-183471486D01*
X183787913Y-183614343D01*
X183930771Y-183685771D01*
X184073628Y-183685771D01*
X184573628Y-183542914D02*
X184645056Y-183614343D01*
X184573628Y-183685771D01*
X184502199Y-183614343D01*
X184573628Y-183542914D01*
X184573628Y-183685771D01*
X184573628Y-182757200D02*
X184645056Y-182828629D01*
X184573628Y-182900057D01*
X184502199Y-182828629D01*
X184573628Y-182757200D01*
X184573628Y-182900057D01*
D10*
D11*
X197002200Y-191507200D02*
X197002200Y-194507200D01*
D10*
D11*
X261002200Y-191507200D02*
X261002200Y-198007200D01*
D14*
X188619708Y-80754521D02*
X188619708Y-81468807D01*
X188572088Y-81611664D01*
X188476850Y-81706902D01*
X188333993Y-81754521D01*
X188238755Y-81754521D01*
X189095898Y-81754521D02*
X189095898Y-80754521D01*
X189476851Y-80754521D01*
X189572089Y-80802140D01*
X189619708Y-80849759D01*
X189667327Y-80944997D01*
X189667327Y-81087854D01*
X189619708Y-81183092D01*
X189572089Y-81230711D01*
X189476851Y-81278330D01*
X189095898Y-81278330D01*
X190619708Y-81754521D02*
X190048279Y-81754521D01*
X190333993Y-81754521D02*
X190333993Y-80754521D01*
X190238755Y-80897378D01*
X190143517Y-80992616D01*
X190048279Y-81040235D01*
X192000660Y-80754521D02*
X192191137Y-80754521D01*
X192286375Y-80802140D01*
X192381613Y-80897378D01*
X192429232Y-81087854D01*
X192429232Y-81421188D01*
X192381613Y-81611664D01*
X192286375Y-81706902D01*
X192191137Y-81754521D01*
X192000660Y-81754521D01*
X191905422Y-81706902D01*
X191810184Y-81611664D01*
X191762565Y-81421188D01*
X191762565Y-81087854D01*
X191810184Y-80897378D01*
X191905422Y-80802140D01*
X192000660Y-80754521D01*
X193191137Y-81230711D02*
X192857803Y-81230711D01*
X192857803Y-81754521D02*
X192857803Y-80754521D01*
X193333994Y-80754521D01*
X194048280Y-81230711D02*
X193714946Y-81230711D01*
X193714946Y-81754521D02*
X193714946Y-80754521D01*
X194191137Y-80754521D01*
X195333994Y-81230711D02*
X196095899Y-81230711D01*
X196095899Y-81516426D02*
X195333994Y-81516426D01*
X197286375Y-81468807D02*
X197762566Y-81468807D01*
X197191137Y-81754521D02*
X197524470Y-80754521D01*
X197857804Y-81754521D01*
X198714947Y-81754521D02*
X198143518Y-81754521D01*
X198429232Y-81754521D02*
X198429232Y-80754521D01*
X198333994Y-80897378D01*
X198238756Y-80992616D01*
X198143518Y-81040235D01*
X188953041Y-82354521D02*
X188953041Y-83068807D01*
X188905421Y-83211664D01*
X188810183Y-83306902D01*
X188667326Y-83354521D01*
X188572088Y-83354521D01*
X189429231Y-83354521D02*
X189429231Y-82354521D01*
X189810184Y-82354521D01*
X189905422Y-82402140D01*
X189953041Y-82449759D01*
X190000660Y-82544997D01*
X190000660Y-82687854D01*
X189953041Y-82783092D01*
X189905422Y-82830711D01*
X189810184Y-82878330D01*
X189429231Y-82878330D01*
X190953041Y-83354521D02*
X190381612Y-83354521D01*
X190667326Y-83354521D02*
X190667326Y-82354521D01*
X190572088Y-82497378D01*
X190476850Y-82592616D01*
X190381612Y-82640235D01*
X192333993Y-82354521D02*
X192524470Y-82354521D01*
X192619708Y-82402140D01*
X192714946Y-82497378D01*
X192762565Y-82687854D01*
X192762565Y-83021188D01*
X192714946Y-83211664D01*
X192619708Y-83306902D01*
X192524470Y-83354521D01*
X192333993Y-83354521D01*
X192238755Y-83306902D01*
X192143517Y-83211664D01*
X192095898Y-83021188D01*
X192095898Y-82687854D01*
X192143517Y-82497378D01*
X192238755Y-82402140D01*
X192333993Y-82354521D01*
X193191136Y-83354521D02*
X193191136Y-82354521D01*
X193762565Y-83354521D01*
X193762565Y-82354521D01*
X195000660Y-82830711D02*
X195762565Y-82830711D01*
X195762565Y-83116426D02*
X195000660Y-83116426D01*
X196953041Y-83068807D02*
X197429232Y-83068807D01*
X196857803Y-83354521D02*
X197191136Y-82354521D01*
X197524470Y-83354521D01*
X197810184Y-82449759D02*
X197857803Y-82402140D01*
X197953041Y-82354521D01*
X198191137Y-82354521D01*
X198286375Y-82402140D01*
X198333994Y-82449759D01*
X198381613Y-82544997D01*
X198381613Y-82640235D01*
X198333994Y-82783092D01*
X197762565Y-83354521D01*
X198381613Y-83354521D01*
X129572089Y-116054521D02*
X129238755Y-115578330D01*
X129000660Y-116054521D02*
X129000660Y-115054521D01*
X129381613Y-115054521D01*
X129476851Y-115102140D01*
X129524470Y-115149759D01*
X129572089Y-115244997D01*
X129572089Y-115387854D01*
X129524470Y-115483092D01*
X129476851Y-115530711D01*
X129381613Y-115578330D01*
X129000660Y-115578330D01*
X130524470Y-116054521D02*
X129953041Y-116054521D01*
X130238755Y-116054521D02*
X130238755Y-115054521D01*
X130143517Y-115197378D01*
X130048279Y-115292616D01*
X129953041Y-115340235D01*
X131476851Y-116054521D02*
X130905422Y-116054521D01*
X131191136Y-116054521D02*
X131191136Y-115054521D01*
X131095898Y-115197378D01*
X131000660Y-115292616D01*
X130905422Y-115340235D01*
X132667327Y-115530711D02*
X133429232Y-115530711D01*
X133429232Y-115816426D02*
X132667327Y-115816426D01*
X134619708Y-115768807D02*
X135095899Y-115768807D01*
X134524470Y-116054521D02*
X134857803Y-115054521D01*
X135191137Y-116054521D01*
X136048280Y-116054521D02*
X135476851Y-116054521D01*
X135762565Y-116054521D02*
X135762565Y-115054521D01*
X135667327Y-115197378D01*
X135572089Y-115292616D01*
X135476851Y-115340235D01*
X129572089Y-117654521D02*
X129238755Y-117178330D01*
X129000660Y-117654521D02*
X129000660Y-116654521D01*
X129381613Y-116654521D01*
X129476851Y-116702140D01*
X129524470Y-116749759D01*
X129572089Y-116844997D01*
X129572089Y-116987854D01*
X129524470Y-117083092D01*
X129476851Y-117130711D01*
X129381613Y-117178330D01*
X129000660Y-117178330D01*
X130524470Y-117654521D02*
X129953041Y-117654521D01*
X130238755Y-117654521D02*
X130238755Y-116654521D01*
X130143517Y-116797378D01*
X130048279Y-116892616D01*
X129953041Y-116940235D01*
X131143517Y-116654521D02*
X131238756Y-116654521D01*
X131333994Y-116702140D01*
X131381613Y-116749759D01*
X131429232Y-116844997D01*
X131476851Y-117035473D01*
X131476851Y-117273569D01*
X131429232Y-117464045D01*
X131381613Y-117559283D01*
X131333994Y-117606902D01*
X131238756Y-117654521D01*
X131143517Y-117654521D01*
X131048279Y-117606902D01*
X131000660Y-117559283D01*
X130953041Y-117464045D01*
X130905422Y-117273569D01*
X130905422Y-117035473D01*
X130953041Y-116844997D01*
X131000660Y-116749759D01*
X131048279Y-116702140D01*
X131143517Y-116654521D01*
X132667327Y-117130711D02*
X133429232Y-117130711D01*
X133429232Y-117416426D02*
X132667327Y-117416426D01*
X134619708Y-117368807D02*
X135095899Y-117368807D01*
X134524470Y-117654521D02*
X134857803Y-116654521D01*
X135191137Y-117654521D01*
X135476851Y-116749759D02*
X135524470Y-116702140D01*
X135619708Y-116654521D01*
X135857804Y-116654521D01*
X135953042Y-116702140D01*
X136000661Y-116749759D01*
X136048280Y-116844997D01*
X136048280Y-116940235D01*
X136000661Y-117083092D01*
X135429232Y-117654521D01*
X136048280Y-117654521D01*
D11*
X120498660Y-121331140D02*
X121698660Y-121331140D01*
X121698660Y-123081140D02*
X120498660Y-123081140D01*
X115750000Y-128400000D02*
X114750000Y-128400000D01*
X114750000Y-130100000D02*
X115750000Y-130100000D01*
X109400000Y-122750000D02*
X109400000Y-123750000D01*
X111100000Y-123750000D02*
X111100000Y-122750000D01*
X175250000Y-97750000D02*
X182750000Y-97750000D01*
X182750000Y-97750000D02*
X182750000Y-102250000D01*
X182750000Y-102250000D02*
X175250000Y-102250000D01*
X175250000Y-102250000D02*
X175250000Y-97750000D01*
X183750000Y-97750000D02*
X191250000Y-97750000D01*
X191250000Y-97750000D02*
X191250000Y-102250000D01*
X191250000Y-102250000D02*
X183750000Y-102250000D01*
X183750000Y-102250000D02*
X183750000Y-97750000D01*
X99500000Y-43850000D02*
X100500000Y-43850000D01*
X100500000Y-42150000D02*
X99500000Y-42150000D01*
X99500000Y-77850000D02*
X100500000Y-77850000D01*
X100500000Y-76150000D02*
X99500000Y-76150000D01*
X99500000Y-111850000D02*
X100500000Y-111850000D01*
X100500000Y-110150000D02*
X99500000Y-110150000D01*
X99500000Y-145850000D02*
X100500000Y-145850000D01*
X100500000Y-144150000D02*
X99500000Y-144150000D01*
X133500000Y-43850000D02*
X134500000Y-43850000D01*
X134500000Y-42150000D02*
X133500000Y-42150000D01*
X133500000Y-77850000D02*
X134500000Y-77850000D01*
X134500000Y-76150000D02*
X133500000Y-76150000D01*
X133500000Y-111850000D02*
X134500000Y-111850000D01*
X134500000Y-110150000D02*
X133500000Y-110150000D01*
X133500000Y-145850000D02*
X134500000Y-145850000D01*
X134500000Y-144150000D02*
X133500000Y-144150000D01*
X167500000Y-43850000D02*
X168500000Y-43850000D01*
X168500000Y-42150000D02*
X167500000Y-42150000D01*
X167500000Y-77850000D02*
X168500000Y-77850000D01*
X168500000Y-76150000D02*
X167500000Y-76150000D01*
X167500000Y-111850000D02*
X168500000Y-111850000D01*
X168500000Y-110150000D02*
X167500000Y-110150000D01*
X167500000Y-145850000D02*
X168500000Y-145850000D01*
X168500000Y-144150000D02*
X167500000Y-144150000D01*
X201500000Y-43850000D02*
X202500000Y-43850000D01*
X202500000Y-42150000D02*
X201500000Y-42150000D01*
X201500000Y-77850000D02*
X202500000Y-77850000D01*
X202500000Y-76150000D02*
X201500000Y-76150000D01*
X201500000Y-111850000D02*
X202500000Y-111850000D01*
X202500000Y-110150000D02*
X201500000Y-110150000D01*
X198500660Y-146852140D02*
X199500660Y-146852140D01*
X199500660Y-145152140D02*
X198500660Y-145152140D01*
X99500000Y-60850000D02*
X100500000Y-60850000D01*
X100500000Y-59150000D02*
X99500000Y-59150000D01*
X116500000Y-43850000D02*
X117500000Y-43850000D01*
X117500000Y-42150000D02*
X116500000Y-42150000D01*
X116500000Y-60850000D02*
X117500000Y-60850000D01*
X117500000Y-59150000D02*
X116500000Y-59150000D01*
X116500000Y-77850000D02*
X117500000Y-77850000D01*
X117500000Y-76150000D02*
X116500000Y-76150000D01*
X133500000Y-60850000D02*
X134500000Y-60850000D01*
X134500000Y-59150000D02*
X133500000Y-59150000D01*
X167500000Y-128850000D02*
X168500000Y-128850000D01*
X168500000Y-127150000D02*
X167500000Y-127150000D01*
X184500000Y-111850000D02*
X185500000Y-111850000D01*
X185500000Y-110150000D02*
X184500000Y-110150000D01*
X184500000Y-128850000D02*
X185500000Y-128850000D01*
X185500000Y-127150000D02*
X184500000Y-127150000D01*
X184500000Y-145850000D02*
X185500000Y-145850000D01*
X185500000Y-144150000D02*
X184500000Y-144150000D01*
X201500000Y-128850000D02*
X202500000Y-128850000D01*
X202500000Y-127150000D02*
X201500000Y-127150000D01*
X196370660Y-90022140D02*
X196370660Y-84022140D01*
X196370660Y-84022140D02*
X191090660Y-84022140D01*
X191090660Y-84022140D02*
X191090660Y-90022140D01*
X191090660Y-90022140D02*
X196370660Y-90022140D01*
X195000660Y-84022140D02*
X195000660Y-85022140D01*
X195000660Y-85022140D02*
X192460660Y-85022140D01*
X192460660Y-85022140D02*
X192460660Y-84022140D01*
X195000660Y-85022140D02*
X194750660Y-85452140D01*
X194750660Y-85452140D02*
X192710660Y-85452140D01*
X192710660Y-85452140D02*
X192460660Y-85022140D01*
X194750660Y-84022140D02*
X194750660Y-85022140D01*
X192710660Y-84022140D02*
X192710660Y-85022140D01*
X195800660Y-90022140D02*
X195800660Y-89402140D01*
X195800660Y-89402140D02*
X194200660Y-89402140D01*
X194200660Y-89402140D02*
X194200660Y-90022140D01*
X193260660Y-90022140D02*
X193260660Y-89402140D01*
X193260660Y-89402140D02*
X191660660Y-89402140D01*
X191660660Y-89402140D02*
X191660660Y-90022140D01*
X179080000Y-87820000D02*
X120660000Y-87820000D01*
X178540000Y-87270000D02*
X121220000Y-87270000D01*
X179080000Y-78720000D02*
X120660000Y-78720000D01*
X178540000Y-79270000D02*
X152120000Y-79270000D01*
X147620000Y-79270000D02*
X121220000Y-79270000D01*
X152120000Y-79270000D02*
X152120000Y-78720000D01*
X147620000Y-79270000D02*
X147620000Y-78720000D01*
X179080000Y-87820000D02*
X179080000Y-78720000D01*
X178540000Y-87270000D02*
X178540000Y-79270000D01*
X120660000Y-87820000D02*
X120660000Y-78720000D01*
X121220000Y-87270000D02*
X121220000Y-79270000D01*
X179080000Y-87820000D02*
X178540000Y-87270000D01*
X120660000Y-87820000D02*
X121220000Y-87270000D01*
X179080000Y-78720000D02*
X178540000Y-79270000D01*
X120660000Y-78720000D02*
X121220000Y-79270000D01*
X164800000Y-94570000D02*
X164800000Y-97970000D01*
X164802944Y-94572944D02*
G75*
G02X168900000Y-96270000I1697056J-1697056D01*
G01*
X164802944Y-97967056D02*
G75*
G03X168900000Y-96270000I1697056J1697056D01*
G01*
X199400660Y-86127140D02*
X200600660Y-86127140D01*
X200600660Y-87877140D02*
X199400660Y-87877140D01*
X120498660Y-123617140D02*
X121698660Y-123617140D01*
X121698660Y-125367140D02*
X120498660Y-125367140D01*
X146730000Y-123960000D02*
X146730000Y-118880000D01*
X146730000Y-118880000D02*
X149270000Y-118880000D01*
X149270000Y-118880000D02*
X149270000Y-123960000D01*
X149270000Y-123960000D02*
X146730000Y-123960000D01*
X148000000Y-123960000D02*
X148000000Y-125230000D01*
X148000000Y-118880000D02*
X148000000Y-117610000D01*
X161270000Y-102540000D02*
X161270000Y-107620000D01*
X161270000Y-107620000D02*
X158730000Y-107620000D01*
X158730000Y-107620000D02*
X158730000Y-102540000D01*
X158730000Y-102540000D02*
X161270000Y-102540000D01*
X160000000Y-102540000D02*
X160000000Y-101270000D01*
X160000000Y-107620000D02*
X160000000Y-108890000D01*
X175540000Y-91730000D02*
X180620000Y-91730000D01*
X180620000Y-91730000D02*
X180620000Y-94270000D01*
X180620000Y-94270000D02*
X175540000Y-94270000D01*
X175540000Y-94270000D02*
X175540000Y-91730000D01*
X175540000Y-93000000D02*
X174270000Y-93000000D01*
X180620000Y-93000000D02*
X181890000Y-93000000D01*
X148540000Y-98230000D02*
X153620000Y-98230000D01*
X153620000Y-98230000D02*
X153620000Y-100770000D01*
X153620000Y-100770000D02*
X148540000Y-100770000D01*
X148540000Y-100770000D02*
X148540000Y-98230000D01*
X148540000Y-99500000D02*
X147270000Y-99500000D01*
X153620000Y-99500000D02*
X154890000Y-99500000D01*
X135540000Y-98230000D02*
X140620000Y-98230000D01*
X140620000Y-98230000D02*
X140620000Y-100770000D01*
X140620000Y-100770000D02*
X135540000Y-100770000D01*
X135540000Y-100770000D02*
X135540000Y-98230000D01*
X135540000Y-99500000D02*
X134270000Y-99500000D01*
X140620000Y-99500000D02*
X141890000Y-99500000D01*
X112540605Y-125393000D02*
G75*
G03X112540605Y-125393000I-179605J0D01*
G01*
X112488000Y-121202000D02*
X117822000Y-121202000D01*
X117822000Y-121202000D02*
X117822000Y-125266000D01*
X117822000Y-125266000D02*
X112996000Y-125266000D01*
X112996000Y-125266000D02*
X112488000Y-124758000D01*
X112488000Y-124758000D02*
X112488000Y-121202000D01*
X149299981Y-106730000D02*
G75*
G03X149299981Y-106730000I-283981J0D01*
G01*
X152445000Y-106984000D02*
X152445000Y-111429000D01*
X152445000Y-111429000D02*
X149270000Y-111429000D01*
X149270000Y-111429000D02*
X149270000Y-107365000D01*
X149270000Y-107365000D02*
X149651000Y-106984000D01*
X149651000Y-106984000D02*
X152445000Y-106984000D01*
X102000777Y-37287500D02*
G75*
G03X102000777Y-37287500I-176777J0D01*
G01*
X101699000Y-40537500D02*
X101699000Y-37787500D01*
X101699000Y-37787500D02*
X101324000Y-37412500D01*
X101324000Y-37412500D02*
X97574000Y-37412500D01*
X97574000Y-37412500D02*
X97574000Y-40537500D01*
X97574000Y-40537500D02*
X101699000Y-40537500D01*
X102000777Y-71287500D02*
G75*
G03X102000777Y-71287500I-176777J0D01*
G01*
X101699000Y-74537500D02*
X101699000Y-71787500D01*
X101699000Y-71787500D02*
X101324000Y-71412500D01*
X101324000Y-71412500D02*
X97574000Y-71412500D01*
X97574000Y-71412500D02*
X97574000Y-74537500D01*
X97574000Y-74537500D02*
X101699000Y-74537500D01*
X102000777Y-105287500D02*
G75*
G03X102000777Y-105287500I-176777J0D01*
G01*
X101699000Y-108537500D02*
X101699000Y-105787500D01*
X101699000Y-105787500D02*
X101324000Y-105412500D01*
X101324000Y-105412500D02*
X97574000Y-105412500D01*
X97574000Y-105412500D02*
X97574000Y-108537500D01*
X97574000Y-108537500D02*
X101699000Y-108537500D01*
X102000777Y-139287500D02*
G75*
G03X102000777Y-139287500I-176777J0D01*
G01*
X101699000Y-142537500D02*
X101699000Y-139787500D01*
X101699000Y-139787500D02*
X101324000Y-139412500D01*
X101324000Y-139412500D02*
X97574000Y-139412500D01*
X97574000Y-139412500D02*
X97574000Y-142537500D01*
X97574000Y-142537500D02*
X101699000Y-142537500D01*
X136000777Y-37287500D02*
G75*
G03X136000777Y-37287500I-176777J0D01*
G01*
X135699000Y-40537500D02*
X135699000Y-37787500D01*
X135699000Y-37787500D02*
X135324000Y-37412500D01*
X135324000Y-37412500D02*
X131574000Y-37412500D01*
X131574000Y-37412500D02*
X131574000Y-40537500D01*
X131574000Y-40537500D02*
X135699000Y-40537500D01*
X136000777Y-71287500D02*
G75*
G03X136000777Y-71287500I-176777J0D01*
G01*
X135699000Y-74537500D02*
X135699000Y-71787500D01*
X135699000Y-71787500D02*
X135324000Y-71412500D01*
X135324000Y-71412500D02*
X131574000Y-71412500D01*
X131574000Y-71412500D02*
X131574000Y-74537500D01*
X131574000Y-74537500D02*
X135699000Y-74537500D01*
X136000777Y-105287500D02*
G75*
G03X136000777Y-105287500I-176777J0D01*
G01*
X135699000Y-108537500D02*
X135699000Y-105787500D01*
X135699000Y-105787500D02*
X135324000Y-105412500D01*
X135324000Y-105412500D02*
X131574000Y-105412500D01*
X131574000Y-105412500D02*
X131574000Y-108537500D01*
X131574000Y-108537500D02*
X135699000Y-108537500D01*
X136000777Y-139287500D02*
G75*
G03X136000777Y-139287500I-176777J0D01*
G01*
X135699000Y-142537500D02*
X135699000Y-139787500D01*
X135699000Y-139787500D02*
X135324000Y-139412500D01*
X135324000Y-139412500D02*
X131574000Y-139412500D01*
X131574000Y-139412500D02*
X131574000Y-142537500D01*
X131574000Y-142537500D02*
X135699000Y-142537500D01*
X170000777Y-37287500D02*
G75*
G03X170000777Y-37287500I-176777J0D01*
G01*
X169699000Y-40537500D02*
X169699000Y-37787500D01*
X169699000Y-37787500D02*
X169324000Y-37412500D01*
X169324000Y-37412500D02*
X165574000Y-37412500D01*
X165574000Y-37412500D02*
X165574000Y-40537500D01*
X165574000Y-40537500D02*
X169699000Y-40537500D01*
X170000777Y-71287500D02*
G75*
G03X170000777Y-71287500I-176777J0D01*
G01*
X169699000Y-74537500D02*
X169699000Y-71787500D01*
X169699000Y-71787500D02*
X169324000Y-71412500D01*
X169324000Y-71412500D02*
X165574000Y-71412500D01*
X165574000Y-71412500D02*
X165574000Y-74537500D01*
X165574000Y-74537500D02*
X169699000Y-74537500D01*
X170000777Y-105287500D02*
G75*
G03X170000777Y-105287500I-176777J0D01*
G01*
X169699000Y-108537500D02*
X169699000Y-105787500D01*
X169699000Y-105787500D02*
X169324000Y-105412500D01*
X169324000Y-105412500D02*
X165574000Y-105412500D01*
X165574000Y-105412500D02*
X165574000Y-108537500D01*
X165574000Y-108537500D02*
X169699000Y-108537500D01*
X170000777Y-139287500D02*
G75*
G03X170000777Y-139287500I-176777J0D01*
G01*
X169699000Y-142537500D02*
X169699000Y-139787500D01*
X169699000Y-139787500D02*
X169324000Y-139412500D01*
X169324000Y-139412500D02*
X165574000Y-139412500D01*
X165574000Y-139412500D02*
X165574000Y-142537500D01*
X165574000Y-142537500D02*
X169699000Y-142537500D01*
X204000777Y-37287500D02*
G75*
G03X204000777Y-37287500I-176777J0D01*
G01*
X203699000Y-40537500D02*
X203699000Y-37787500D01*
X203699000Y-37787500D02*
X203324000Y-37412500D01*
X203324000Y-37412500D02*
X199574000Y-37412500D01*
X199574000Y-37412500D02*
X199574000Y-40537500D01*
X199574000Y-40537500D02*
X203699000Y-40537500D01*
X204000777Y-71287500D02*
G75*
G03X204000777Y-71287500I-176777J0D01*
G01*
X203699000Y-74537500D02*
X203699000Y-71787500D01*
X203699000Y-71787500D02*
X203324000Y-71412500D01*
X203324000Y-71412500D02*
X199574000Y-71412500D01*
X199574000Y-71412500D02*
X199574000Y-74537500D01*
X199574000Y-74537500D02*
X203699000Y-74537500D01*
X204000777Y-105287500D02*
G75*
G03X204000777Y-105287500I-176777J0D01*
G01*
X203699000Y-108537500D02*
X203699000Y-105787500D01*
X203699000Y-105787500D02*
X203324000Y-105412500D01*
X203324000Y-105412500D02*
X199574000Y-105412500D01*
X199574000Y-105412500D02*
X199574000Y-108537500D01*
X199574000Y-108537500D02*
X203699000Y-108537500D01*
X204000777Y-139287500D02*
G75*
G03X204000777Y-139287500I-176777J0D01*
G01*
X203699000Y-142537500D02*
X203699000Y-139787500D01*
X203699000Y-139787500D02*
X203324000Y-139412500D01*
X203324000Y-139412500D02*
X199574000Y-139412500D01*
X199574000Y-139412500D02*
X199574000Y-142537500D01*
X199574000Y-142537500D02*
X203699000Y-142537500D01*
X102000777Y-54287500D02*
G75*
G03X102000777Y-54287500I-176777J0D01*
G01*
X101699000Y-57537500D02*
X101699000Y-54787500D01*
X101699000Y-54787500D02*
X101324000Y-54412500D01*
X101324000Y-54412500D02*
X97574000Y-54412500D01*
X97574000Y-54412500D02*
X97574000Y-57537500D01*
X97574000Y-57537500D02*
X101699000Y-57537500D01*
X119000777Y-37287500D02*
G75*
G03X119000777Y-37287500I-176777J0D01*
G01*
X118699000Y-40537500D02*
X118699000Y-37787500D01*
X118699000Y-37787500D02*
X118324000Y-37412500D01*
X118324000Y-37412500D02*
X114574000Y-37412500D01*
X114574000Y-37412500D02*
X114574000Y-40537500D01*
X114574000Y-40537500D02*
X118699000Y-40537500D01*
X119000777Y-54287500D02*
G75*
G03X119000777Y-54287500I-176777J0D01*
G01*
X118699000Y-57537500D02*
X118699000Y-54787500D01*
X118699000Y-54787500D02*
X118324000Y-54412500D01*
X118324000Y-54412500D02*
X114574000Y-54412500D01*
X114574000Y-54412500D02*
X114574000Y-57537500D01*
X114574000Y-57537500D02*
X118699000Y-57537500D01*
X119000777Y-71287500D02*
G75*
G03X119000777Y-71287500I-176777J0D01*
G01*
X118699000Y-74537500D02*
X118699000Y-71787500D01*
X118699000Y-71787500D02*
X118324000Y-71412500D01*
X118324000Y-71412500D02*
X114574000Y-71412500D01*
X114574000Y-71412500D02*
X114574000Y-74537500D01*
X114574000Y-74537500D02*
X118699000Y-74537500D01*
X136000777Y-54287500D02*
G75*
G03X136000777Y-54287500I-176777J0D01*
G01*
X135699000Y-57537500D02*
X135699000Y-54787500D01*
X135699000Y-54787500D02*
X135324000Y-54412500D01*
X135324000Y-54412500D02*
X131574000Y-54412500D01*
X131574000Y-54412500D02*
X131574000Y-57537500D01*
X131574000Y-57537500D02*
X135699000Y-57537500D01*
X170000777Y-122287500D02*
G75*
G03X170000777Y-122287500I-176777J0D01*
G01*
X169699000Y-125537500D02*
X169699000Y-122787500D01*
X169699000Y-122787500D02*
X169324000Y-122412500D01*
X169324000Y-122412500D02*
X165574000Y-122412500D01*
X165574000Y-122412500D02*
X165574000Y-125537500D01*
X165574000Y-125537500D02*
X169699000Y-125537500D01*
X187000777Y-105287500D02*
G75*
G03X187000777Y-105287500I-176777J0D01*
G01*
X186699000Y-108537500D02*
X186699000Y-105787500D01*
X186699000Y-105787500D02*
X186324000Y-105412500D01*
X186324000Y-105412500D02*
X182574000Y-105412500D01*
X182574000Y-105412500D02*
X182574000Y-108537500D01*
X182574000Y-108537500D02*
X186699000Y-108537500D01*
X187000777Y-122287500D02*
G75*
G03X187000777Y-122287500I-176777J0D01*
G01*
X186699000Y-125537500D02*
X186699000Y-122787500D01*
X186699000Y-122787500D02*
X186324000Y-122412500D01*
X186324000Y-122412500D02*
X182574000Y-122412500D01*
X182574000Y-122412500D02*
X182574000Y-125537500D01*
X182574000Y-125537500D02*
X186699000Y-125537500D01*
X187000777Y-139287500D02*
G75*
G03X187000777Y-139287500I-176777J0D01*
G01*
X186699000Y-142537500D02*
X186699000Y-139787500D01*
X186699000Y-139787500D02*
X186324000Y-139412500D01*
X186324000Y-139412500D02*
X182574000Y-139412500D01*
X182574000Y-139412500D02*
X182574000Y-142537500D01*
X182574000Y-142537500D02*
X186699000Y-142537500D01*
X204000777Y-122287500D02*
G75*
G03X204000777Y-122287500I-176777J0D01*
G01*
X203699000Y-125537500D02*
X203699000Y-122787500D01*
X203699000Y-122787500D02*
X203324000Y-122412500D01*
X203324000Y-122412500D02*
X199574000Y-122412500D01*
X199574000Y-122412500D02*
X199574000Y-125537500D01*
X199574000Y-125537500D02*
X203699000Y-125537500D01*
X156264982Y-90000000D02*
G75*
G03X156264982Y-90000000I-6264982J0D01*
G01*
X177398000Y-75044400D02*
X177398000Y-76244400D01*
X175648000Y-76244400D02*
X175648000Y-75044400D01*
X127975660Y-115802140D02*
X127975660Y-117002140D01*
X126225660Y-117002140D02*
X126225660Y-115802140D01*
X125675660Y-115802140D02*
X125675660Y-117002140D01*
X123925660Y-117002140D02*
X123925660Y-115802140D01*
X124995994Y-122658521D02*
X124662660Y-122182330D01*
X124424565Y-122658521D02*
X124424565Y-121658521D01*
X124805518Y-121658521D01*
X124900756Y-121706140D01*
X124948375Y-121753759D01*
X124995994Y-121848997D01*
X124995994Y-121991854D01*
X124948375Y-122087092D01*
X124900756Y-122134711D01*
X124805518Y-122182330D01*
X124424565Y-122182330D01*
X125376946Y-121753759D02*
X125424565Y-121706140D01*
X125519803Y-121658521D01*
X125757899Y-121658521D01*
X125853137Y-121706140D01*
X125900756Y-121753759D01*
X125948375Y-121848997D01*
X125948375Y-121944235D01*
X125900756Y-122087092D01*
X125329327Y-122658521D01*
X125948375Y-122658521D01*
X118083334Y-131607143D02*
X118035715Y-131654762D01*
X117892858Y-131702381D01*
X117797620Y-131702381D01*
X117654762Y-131654762D01*
X117559524Y-131559524D01*
X117511905Y-131464286D01*
X117464286Y-131273810D01*
X117464286Y-131130952D01*
X117511905Y-130940476D01*
X117559524Y-130845238D01*
X117654762Y-130750000D01*
X117797620Y-130702381D01*
X117892858Y-130702381D01*
X118035715Y-130750000D01*
X118083334Y-130797619D01*
X119035715Y-131702381D02*
X118464286Y-131702381D01*
X118750000Y-131702381D02*
X118750000Y-130702381D01*
X118654762Y-130845238D01*
X118559524Y-130940476D01*
X118464286Y-130988095D01*
X107583334Y-124107143D02*
X107535715Y-124154762D01*
X107392858Y-124202381D01*
X107297620Y-124202381D01*
X107154762Y-124154762D01*
X107059524Y-124059524D01*
X107011905Y-123964286D01*
X106964286Y-123773810D01*
X106964286Y-123630952D01*
X107011905Y-123440476D01*
X107059524Y-123345238D01*
X107154762Y-123250000D01*
X107297620Y-123202381D01*
X107392858Y-123202381D01*
X107535715Y-123250000D01*
X107583334Y-123297619D01*
X107964286Y-123297619D02*
X108011905Y-123250000D01*
X108107143Y-123202381D01*
X108345239Y-123202381D01*
X108440477Y-123250000D01*
X108488096Y-123297619D01*
X108535715Y-123392857D01*
X108535715Y-123488095D01*
X108488096Y-123630952D01*
X107916667Y-124202381D01*
X108535715Y-124202381D01*
X178833334Y-96857143D02*
X178785715Y-96904762D01*
X178642858Y-96952381D01*
X178547620Y-96952381D01*
X178404762Y-96904762D01*
X178309524Y-96809524D01*
X178261905Y-96714286D01*
X178214286Y-96523810D01*
X178214286Y-96380952D01*
X178261905Y-96190476D01*
X178309524Y-96095238D01*
X178404762Y-96000000D01*
X178547620Y-95952381D01*
X178642858Y-95952381D01*
X178785715Y-96000000D01*
X178833334Y-96047619D01*
X179166667Y-95952381D02*
X179785715Y-95952381D01*
X179452381Y-96333333D01*
X179595239Y-96333333D01*
X179690477Y-96380952D01*
X179738096Y-96428571D01*
X179785715Y-96523810D01*
X179785715Y-96761905D01*
X179738096Y-96857143D01*
X179690477Y-96904762D01*
X179595239Y-96952381D01*
X179309524Y-96952381D01*
X179214286Y-96904762D01*
X179166667Y-96857143D01*
X187333334Y-96857143D02*
X187285715Y-96904762D01*
X187142858Y-96952381D01*
X187047620Y-96952381D01*
X186904762Y-96904762D01*
X186809524Y-96809524D01*
X186761905Y-96714286D01*
X186714286Y-96523810D01*
X186714286Y-96380952D01*
X186761905Y-96190476D01*
X186809524Y-96095238D01*
X186904762Y-96000000D01*
X187047620Y-95952381D01*
X187142858Y-95952381D01*
X187285715Y-96000000D01*
X187333334Y-96047619D01*
X188190477Y-96285714D02*
X188190477Y-96952381D01*
X187952381Y-95904762D02*
X187714286Y-96619048D01*
X188333334Y-96619048D01*
X95833334Y-43357143D02*
X95785715Y-43404762D01*
X95642858Y-43452381D01*
X95547620Y-43452381D01*
X95404762Y-43404762D01*
X95309524Y-43309524D01*
X95261905Y-43214286D01*
X95214286Y-43023810D01*
X95214286Y-42880952D01*
X95261905Y-42690476D01*
X95309524Y-42595238D01*
X95404762Y-42500000D01*
X95547620Y-42452381D01*
X95642858Y-42452381D01*
X95785715Y-42500000D01*
X95833334Y-42547619D01*
X96738096Y-42452381D02*
X96261905Y-42452381D01*
X96214286Y-42928571D01*
X96261905Y-42880952D01*
X96357143Y-42833333D01*
X96595239Y-42833333D01*
X96690477Y-42880952D01*
X96738096Y-42928571D01*
X96785715Y-43023810D01*
X96785715Y-43261905D01*
X96738096Y-43357143D01*
X96690477Y-43404762D01*
X96595239Y-43452381D01*
X96357143Y-43452381D01*
X96261905Y-43404762D01*
X96214286Y-43357143D01*
X95833334Y-77357143D02*
X95785715Y-77404762D01*
X95642858Y-77452381D01*
X95547620Y-77452381D01*
X95404762Y-77404762D01*
X95309524Y-77309524D01*
X95261905Y-77214286D01*
X95214286Y-77023810D01*
X95214286Y-76880952D01*
X95261905Y-76690476D01*
X95309524Y-76595238D01*
X95404762Y-76500000D01*
X95547620Y-76452381D01*
X95642858Y-76452381D01*
X95785715Y-76500000D01*
X95833334Y-76547619D01*
X96690477Y-76452381D02*
X96500000Y-76452381D01*
X96404762Y-76500000D01*
X96357143Y-76547619D01*
X96261905Y-76690476D01*
X96214286Y-76880952D01*
X96214286Y-77261905D01*
X96261905Y-77357143D01*
X96309524Y-77404762D01*
X96404762Y-77452381D01*
X96595239Y-77452381D01*
X96690477Y-77404762D01*
X96738096Y-77357143D01*
X96785715Y-77261905D01*
X96785715Y-77023810D01*
X96738096Y-76928571D01*
X96690477Y-76880952D01*
X96595239Y-76833333D01*
X96404762Y-76833333D01*
X96309524Y-76880952D01*
X96261905Y-76928571D01*
X96214286Y-77023810D01*
X95833334Y-111357143D02*
X95785715Y-111404762D01*
X95642858Y-111452381D01*
X95547620Y-111452381D01*
X95404762Y-111404762D01*
X95309524Y-111309524D01*
X95261905Y-111214286D01*
X95214286Y-111023810D01*
X95214286Y-110880952D01*
X95261905Y-110690476D01*
X95309524Y-110595238D01*
X95404762Y-110500000D01*
X95547620Y-110452381D01*
X95642858Y-110452381D01*
X95785715Y-110500000D01*
X95833334Y-110547619D01*
X96166667Y-110452381D02*
X96833334Y-110452381D01*
X96404762Y-111452381D01*
X99763994Y-147259283D02*
X99716375Y-147306902D01*
X99573518Y-147354521D01*
X99478280Y-147354521D01*
X99335422Y-147306902D01*
X99240184Y-147211664D01*
X99192565Y-147116426D01*
X99144946Y-146925950D01*
X99144946Y-146783092D01*
X99192565Y-146592616D01*
X99240184Y-146497378D01*
X99335422Y-146402140D01*
X99478280Y-146354521D01*
X99573518Y-146354521D01*
X99716375Y-146402140D01*
X99763994Y-146449759D01*
X100335422Y-146783092D02*
X100240184Y-146735473D01*
X100192565Y-146687854D01*
X100144946Y-146592616D01*
X100144946Y-146544997D01*
X100192565Y-146449759D01*
X100240184Y-146402140D01*
X100335422Y-146354521D01*
X100525899Y-146354521D01*
X100621137Y-146402140D01*
X100668756Y-146449759D01*
X100716375Y-146544997D01*
X100716375Y-146592616D01*
X100668756Y-146687854D01*
X100621137Y-146735473D01*
X100525899Y-146783092D01*
X100335422Y-146783092D01*
X100240184Y-146830711D01*
X100192565Y-146878330D01*
X100144946Y-146973569D01*
X100144946Y-147164045D01*
X100192565Y-147259283D01*
X100240184Y-147306902D01*
X100335422Y-147354521D01*
X100525899Y-147354521D01*
X100621137Y-147306902D01*
X100668756Y-147259283D01*
X100716375Y-147164045D01*
X100716375Y-146973569D01*
X100668756Y-146878330D01*
X100621137Y-146830711D01*
X100525899Y-146783092D01*
X129833334Y-43357143D02*
X129785715Y-43404762D01*
X129642858Y-43452381D01*
X129547620Y-43452381D01*
X129404762Y-43404762D01*
X129309524Y-43309524D01*
X129261905Y-43214286D01*
X129214286Y-43023810D01*
X129214286Y-42880952D01*
X129261905Y-42690476D01*
X129309524Y-42595238D01*
X129404762Y-42500000D01*
X129547620Y-42452381D01*
X129642858Y-42452381D01*
X129785715Y-42500000D01*
X129833334Y-42547619D01*
X130309524Y-43452381D02*
X130500000Y-43452381D01*
X130595239Y-43404762D01*
X130642858Y-43357143D01*
X130738096Y-43214286D01*
X130785715Y-43023810D01*
X130785715Y-42642857D01*
X130738096Y-42547619D01*
X130690477Y-42500000D01*
X130595239Y-42452381D01*
X130404762Y-42452381D01*
X130309524Y-42500000D01*
X130261905Y-42547619D01*
X130214286Y-42642857D01*
X130214286Y-42880952D01*
X130261905Y-42976190D01*
X130309524Y-43023810D01*
X130404762Y-43071429D01*
X130595239Y-43071429D01*
X130690477Y-43023810D01*
X130738096Y-42976190D01*
X130785715Y-42880952D01*
X129357143Y-77357143D02*
X129309524Y-77404762D01*
X129166667Y-77452381D01*
X129071429Y-77452381D01*
X128928571Y-77404762D01*
X128833333Y-77309524D01*
X128785714Y-77214286D01*
X128738095Y-77023810D01*
X128738095Y-76880952D01*
X128785714Y-76690476D01*
X128833333Y-76595238D01*
X128928571Y-76500000D01*
X129071429Y-76452381D01*
X129166667Y-76452381D01*
X129309524Y-76500000D01*
X129357143Y-76547619D01*
X130309524Y-77452381D02*
X129738095Y-77452381D01*
X130023809Y-77452381D02*
X130023809Y-76452381D01*
X129928571Y-76595238D01*
X129833333Y-76690476D01*
X129738095Y-76738095D01*
X130928571Y-76452381D02*
X131023810Y-76452381D01*
X131119048Y-76500000D01*
X131166667Y-76547619D01*
X131214286Y-76642857D01*
X131261905Y-76833333D01*
X131261905Y-77071429D01*
X131214286Y-77261905D01*
X131166667Y-77357143D01*
X131119048Y-77404762D01*
X131023810Y-77452381D01*
X130928571Y-77452381D01*
X130833333Y-77404762D01*
X130785714Y-77357143D01*
X130738095Y-77261905D01*
X130690476Y-77071429D01*
X130690476Y-76833333D01*
X130738095Y-76642857D01*
X130785714Y-76547619D01*
X130833333Y-76500000D01*
X130928571Y-76452381D01*
X129357143Y-111357143D02*
X129309524Y-111404762D01*
X129166667Y-111452381D01*
X129071429Y-111452381D01*
X128928571Y-111404762D01*
X128833333Y-111309524D01*
X128785714Y-111214286D01*
X128738095Y-111023810D01*
X128738095Y-110880952D01*
X128785714Y-110690476D01*
X128833333Y-110595238D01*
X128928571Y-110500000D01*
X129071429Y-110452381D01*
X129166667Y-110452381D01*
X129309524Y-110500000D01*
X129357143Y-110547619D01*
X130309524Y-111452381D02*
X129738095Y-111452381D01*
X130023809Y-111452381D02*
X130023809Y-110452381D01*
X129928571Y-110595238D01*
X129833333Y-110690476D01*
X129738095Y-110738095D01*
X131261905Y-111452381D02*
X130690476Y-111452381D01*
X130976190Y-111452381D02*
X130976190Y-110452381D01*
X130880952Y-110595238D01*
X130785714Y-110690476D01*
X130690476Y-110738095D01*
X129357143Y-145357143D02*
X129309524Y-145404762D01*
X129166667Y-145452381D01*
X129071429Y-145452381D01*
X128928571Y-145404762D01*
X128833333Y-145309524D01*
X128785714Y-145214286D01*
X128738095Y-145023810D01*
X128738095Y-144880952D01*
X128785714Y-144690476D01*
X128833333Y-144595238D01*
X128928571Y-144500000D01*
X129071429Y-144452381D01*
X129166667Y-144452381D01*
X129309524Y-144500000D01*
X129357143Y-144547619D01*
X130309524Y-145452381D02*
X129738095Y-145452381D01*
X130023809Y-145452381D02*
X130023809Y-144452381D01*
X129928571Y-144595238D01*
X129833333Y-144690476D01*
X129738095Y-144738095D01*
X130690476Y-144547619D02*
X130738095Y-144500000D01*
X130833333Y-144452381D01*
X131071429Y-144452381D01*
X131166667Y-144500000D01*
X131214286Y-144547619D01*
X131261905Y-144642857D01*
X131261905Y-144738095D01*
X131214286Y-144880952D01*
X130642857Y-145452381D01*
X131261905Y-145452381D01*
X163357143Y-43357143D02*
X163309524Y-43404762D01*
X163166667Y-43452381D01*
X163071429Y-43452381D01*
X162928571Y-43404762D01*
X162833333Y-43309524D01*
X162785714Y-43214286D01*
X162738095Y-43023810D01*
X162738095Y-42880952D01*
X162785714Y-42690476D01*
X162833333Y-42595238D01*
X162928571Y-42500000D01*
X163071429Y-42452381D01*
X163166667Y-42452381D01*
X163309524Y-42500000D01*
X163357143Y-42547619D01*
X164309524Y-43452381D02*
X163738095Y-43452381D01*
X164023809Y-43452381D02*
X164023809Y-42452381D01*
X163928571Y-42595238D01*
X163833333Y-42690476D01*
X163738095Y-42738095D01*
X164642857Y-42452381D02*
X165261905Y-42452381D01*
X164928571Y-42833333D01*
X165071429Y-42833333D01*
X165166667Y-42880952D01*
X165214286Y-42928571D01*
X165261905Y-43023810D01*
X165261905Y-43261905D01*
X165214286Y-43357143D01*
X165166667Y-43404762D01*
X165071429Y-43452381D01*
X164785714Y-43452381D01*
X164690476Y-43404762D01*
X164642857Y-43357143D01*
X163357143Y-77357143D02*
X163309524Y-77404762D01*
X163166667Y-77452381D01*
X163071429Y-77452381D01*
X162928571Y-77404762D01*
X162833333Y-77309524D01*
X162785714Y-77214286D01*
X162738095Y-77023810D01*
X162738095Y-76880952D01*
X162785714Y-76690476D01*
X162833333Y-76595238D01*
X162928571Y-76500000D01*
X163071429Y-76452381D01*
X163166667Y-76452381D01*
X163309524Y-76500000D01*
X163357143Y-76547619D01*
X164309524Y-77452381D02*
X163738095Y-77452381D01*
X164023809Y-77452381D02*
X164023809Y-76452381D01*
X163928571Y-76595238D01*
X163833333Y-76690476D01*
X163738095Y-76738095D01*
X165166667Y-76785714D02*
X165166667Y-77452381D01*
X164928571Y-76404762D02*
X164690476Y-77119048D01*
X165309524Y-77119048D01*
X163357143Y-111357143D02*
X163309524Y-111404762D01*
X163166667Y-111452381D01*
X163071429Y-111452381D01*
X162928571Y-111404762D01*
X162833333Y-111309524D01*
X162785714Y-111214286D01*
X162738095Y-111023810D01*
X162738095Y-110880952D01*
X162785714Y-110690476D01*
X162833333Y-110595238D01*
X162928571Y-110500000D01*
X163071429Y-110452381D01*
X163166667Y-110452381D01*
X163309524Y-110500000D01*
X163357143Y-110547619D01*
X164309524Y-111452381D02*
X163738095Y-111452381D01*
X164023809Y-111452381D02*
X164023809Y-110452381D01*
X163928571Y-110595238D01*
X163833333Y-110690476D01*
X163738095Y-110738095D01*
X165214286Y-110452381D02*
X164738095Y-110452381D01*
X164690476Y-110928571D01*
X164738095Y-110880952D01*
X164833333Y-110833333D01*
X165071429Y-110833333D01*
X165166667Y-110880952D01*
X165214286Y-110928571D01*
X165261905Y-111023810D01*
X165261905Y-111261905D01*
X165214286Y-111357143D01*
X165166667Y-111404762D01*
X165071429Y-111452381D01*
X164833333Y-111452381D01*
X164738095Y-111404762D01*
X164690476Y-111357143D01*
X163357143Y-145357143D02*
X163309524Y-145404762D01*
X163166667Y-145452381D01*
X163071429Y-145452381D01*
X162928571Y-145404762D01*
X162833333Y-145309524D01*
X162785714Y-145214286D01*
X162738095Y-145023810D01*
X162738095Y-144880952D01*
X162785714Y-144690476D01*
X162833333Y-144595238D01*
X162928571Y-144500000D01*
X163071429Y-144452381D01*
X163166667Y-144452381D01*
X163309524Y-144500000D01*
X163357143Y-144547619D01*
X164309524Y-145452381D02*
X163738095Y-145452381D01*
X164023809Y-145452381D02*
X164023809Y-144452381D01*
X163928571Y-144595238D01*
X163833333Y-144690476D01*
X163738095Y-144738095D01*
X165166667Y-144452381D02*
X164976190Y-144452381D01*
X164880952Y-144500000D01*
X164833333Y-144547619D01*
X164738095Y-144690476D01*
X164690476Y-144880952D01*
X164690476Y-145261905D01*
X164738095Y-145357143D01*
X164785714Y-145404762D01*
X164880952Y-145452381D01*
X165071429Y-145452381D01*
X165166667Y-145404762D01*
X165214286Y-145357143D01*
X165261905Y-145261905D01*
X165261905Y-145023810D01*
X165214286Y-144928571D01*
X165166667Y-144880952D01*
X165071429Y-144833333D01*
X164880952Y-144833333D01*
X164785714Y-144880952D01*
X164738095Y-144928571D01*
X164690476Y-145023810D01*
X197357143Y-43357143D02*
X197309524Y-43404762D01*
X197166667Y-43452381D01*
X197071429Y-43452381D01*
X196928571Y-43404762D01*
X196833333Y-43309524D01*
X196785714Y-43214286D01*
X196738095Y-43023810D01*
X196738095Y-42880952D01*
X196785714Y-42690476D01*
X196833333Y-42595238D01*
X196928571Y-42500000D01*
X197071429Y-42452381D01*
X197166667Y-42452381D01*
X197309524Y-42500000D01*
X197357143Y-42547619D01*
X198309524Y-43452381D02*
X197738095Y-43452381D01*
X198023809Y-43452381D02*
X198023809Y-42452381D01*
X197928571Y-42595238D01*
X197833333Y-42690476D01*
X197738095Y-42738095D01*
X198642857Y-42452381D02*
X199309524Y-42452381D01*
X198880952Y-43452381D01*
X197357143Y-77357143D02*
X197309524Y-77404762D01*
X197166667Y-77452381D01*
X197071429Y-77452381D01*
X196928571Y-77404762D01*
X196833333Y-77309524D01*
X196785714Y-77214286D01*
X196738095Y-77023810D01*
X196738095Y-76880952D01*
X196785714Y-76690476D01*
X196833333Y-76595238D01*
X196928571Y-76500000D01*
X197071429Y-76452381D01*
X197166667Y-76452381D01*
X197309524Y-76500000D01*
X197357143Y-76547619D01*
X198309524Y-77452381D02*
X197738095Y-77452381D01*
X198023809Y-77452381D02*
X198023809Y-76452381D01*
X197928571Y-76595238D01*
X197833333Y-76690476D01*
X197738095Y-76738095D01*
X198880952Y-76880952D02*
X198785714Y-76833333D01*
X198738095Y-76785714D01*
X198690476Y-76690476D01*
X198690476Y-76642857D01*
X198738095Y-76547619D01*
X198785714Y-76500000D01*
X198880952Y-76452381D01*
X199071429Y-76452381D01*
X199166667Y-76500000D01*
X199214286Y-76547619D01*
X199261905Y-76642857D01*
X199261905Y-76690476D01*
X199214286Y-76785714D01*
X199166667Y-76833333D01*
X199071429Y-76880952D01*
X198880952Y-76880952D01*
X198785714Y-76928571D01*
X198738095Y-76976190D01*
X198690476Y-77071429D01*
X198690476Y-77261905D01*
X198738095Y-77357143D01*
X198785714Y-77404762D01*
X198880952Y-77452381D01*
X199071429Y-77452381D01*
X199166667Y-77404762D01*
X199214286Y-77357143D01*
X199261905Y-77261905D01*
X199261905Y-77071429D01*
X199214286Y-76976190D01*
X199166667Y-76928571D01*
X199071429Y-76880952D01*
X197357143Y-111357143D02*
X197309524Y-111404762D01*
X197166667Y-111452381D01*
X197071429Y-111452381D01*
X196928571Y-111404762D01*
X196833333Y-111309524D01*
X196785714Y-111214286D01*
X196738095Y-111023810D01*
X196738095Y-110880952D01*
X196785714Y-110690476D01*
X196833333Y-110595238D01*
X196928571Y-110500000D01*
X197071429Y-110452381D01*
X197166667Y-110452381D01*
X197309524Y-110500000D01*
X197357143Y-110547619D01*
X198309524Y-111452381D02*
X197738095Y-111452381D01*
X198023809Y-111452381D02*
X198023809Y-110452381D01*
X197928571Y-110595238D01*
X197833333Y-110690476D01*
X197738095Y-110738095D01*
X198785714Y-111452381D02*
X198976190Y-111452381D01*
X199071429Y-111404762D01*
X199119048Y-111357143D01*
X199214286Y-111214286D01*
X199261905Y-111023810D01*
X199261905Y-110642857D01*
X199214286Y-110547619D01*
X199166667Y-110500000D01*
X199071429Y-110452381D01*
X198880952Y-110452381D01*
X198785714Y-110500000D01*
X198738095Y-110547619D01*
X198690476Y-110642857D01*
X198690476Y-110880952D01*
X198738095Y-110976190D01*
X198785714Y-111023810D01*
X198880952Y-111071429D01*
X199071429Y-111071429D01*
X199166667Y-111023810D01*
X199214286Y-110976190D01*
X199261905Y-110880952D01*
X194207803Y-145689283D02*
X194160184Y-145736902D01*
X194017327Y-145784521D01*
X193922089Y-145784521D01*
X193779231Y-145736902D01*
X193683993Y-145641664D01*
X193636374Y-145546426D01*
X193588755Y-145355950D01*
X193588755Y-145213092D01*
X193636374Y-145022616D01*
X193683993Y-144927378D01*
X193779231Y-144832140D01*
X193922089Y-144784521D01*
X194017327Y-144784521D01*
X194160184Y-144832140D01*
X194207803Y-144879759D01*
X194588755Y-144879759D02*
X194636374Y-144832140D01*
X194731612Y-144784521D01*
X194969708Y-144784521D01*
X195064946Y-144832140D01*
X195112565Y-144879759D01*
X195160184Y-144974997D01*
X195160184Y-145070235D01*
X195112565Y-145213092D01*
X194541136Y-145784521D01*
X195160184Y-145784521D01*
X195779231Y-144784521D02*
X195874470Y-144784521D01*
X195969708Y-144832140D01*
X196017327Y-144879759D01*
X196064946Y-144974997D01*
X196112565Y-145165473D01*
X196112565Y-145403569D01*
X196064946Y-145594045D01*
X196017327Y-145689283D01*
X195969708Y-145736902D01*
X195874470Y-145784521D01*
X195779231Y-145784521D01*
X195683993Y-145736902D01*
X195636374Y-145689283D01*
X195588755Y-145594045D01*
X195541136Y-145403569D01*
X195541136Y-145165473D01*
X195588755Y-144974997D01*
X195636374Y-144879759D01*
X195683993Y-144832140D01*
X195779231Y-144784521D01*
X95357143Y-60357143D02*
X95309524Y-60404762D01*
X95166667Y-60452381D01*
X95071429Y-60452381D01*
X94928571Y-60404762D01*
X94833333Y-60309524D01*
X94785714Y-60214286D01*
X94738095Y-60023810D01*
X94738095Y-59880952D01*
X94785714Y-59690476D01*
X94833333Y-59595238D01*
X94928571Y-59500000D01*
X95071429Y-59452381D01*
X95166667Y-59452381D01*
X95309524Y-59500000D01*
X95357143Y-59547619D01*
X95738095Y-59547619D02*
X95785714Y-59500000D01*
X95880952Y-59452381D01*
X96119048Y-59452381D01*
X96214286Y-59500000D01*
X96261905Y-59547619D01*
X96309524Y-59642857D01*
X96309524Y-59738095D01*
X96261905Y-59880952D01*
X95690476Y-60452381D01*
X96309524Y-60452381D01*
X97261905Y-60452381D02*
X96690476Y-60452381D01*
X96976190Y-60452381D02*
X96976190Y-59452381D01*
X96880952Y-59595238D01*
X96785714Y-59690476D01*
X96690476Y-59738095D01*
X112357143Y-43357143D02*
X112309524Y-43404762D01*
X112166667Y-43452381D01*
X112071429Y-43452381D01*
X111928571Y-43404762D01*
X111833333Y-43309524D01*
X111785714Y-43214286D01*
X111738095Y-43023810D01*
X111738095Y-42880952D01*
X111785714Y-42690476D01*
X111833333Y-42595238D01*
X111928571Y-42500000D01*
X112071429Y-42452381D01*
X112166667Y-42452381D01*
X112309524Y-42500000D01*
X112357143Y-42547619D01*
X112738095Y-42547619D02*
X112785714Y-42500000D01*
X112880952Y-42452381D01*
X113119048Y-42452381D01*
X113214286Y-42500000D01*
X113261905Y-42547619D01*
X113309524Y-42642857D01*
X113309524Y-42738095D01*
X113261905Y-42880952D01*
X112690476Y-43452381D01*
X113309524Y-43452381D01*
X113690476Y-42547619D02*
X113738095Y-42500000D01*
X113833333Y-42452381D01*
X114071429Y-42452381D01*
X114166667Y-42500000D01*
X114214286Y-42547619D01*
X114261905Y-42642857D01*
X114261905Y-42738095D01*
X114214286Y-42880952D01*
X113642857Y-43452381D01*
X114261905Y-43452381D01*
X112357143Y-60357143D02*
X112309524Y-60404762D01*
X112166667Y-60452381D01*
X112071429Y-60452381D01*
X111928571Y-60404762D01*
X111833333Y-60309524D01*
X111785714Y-60214286D01*
X111738095Y-60023810D01*
X111738095Y-59880952D01*
X111785714Y-59690476D01*
X111833333Y-59595238D01*
X111928571Y-59500000D01*
X112071429Y-59452381D01*
X112166667Y-59452381D01*
X112309524Y-59500000D01*
X112357143Y-59547619D01*
X112738095Y-59547619D02*
X112785714Y-59500000D01*
X112880952Y-59452381D01*
X113119048Y-59452381D01*
X113214286Y-59500000D01*
X113261905Y-59547619D01*
X113309524Y-59642857D01*
X113309524Y-59738095D01*
X113261905Y-59880952D01*
X112690476Y-60452381D01*
X113309524Y-60452381D01*
X113642857Y-59452381D02*
X114261905Y-59452381D01*
X113928571Y-59833333D01*
X114071429Y-59833333D01*
X114166667Y-59880952D01*
X114214286Y-59928571D01*
X114261905Y-60023810D01*
X114261905Y-60261905D01*
X114214286Y-60357143D01*
X114166667Y-60404762D01*
X114071429Y-60452381D01*
X113785714Y-60452381D01*
X113690476Y-60404762D01*
X113642857Y-60357143D01*
X112357143Y-77357143D02*
X112309524Y-77404762D01*
X112166667Y-77452381D01*
X112071429Y-77452381D01*
X111928571Y-77404762D01*
X111833333Y-77309524D01*
X111785714Y-77214286D01*
X111738095Y-77023810D01*
X111738095Y-76880952D01*
X111785714Y-76690476D01*
X111833333Y-76595238D01*
X111928571Y-76500000D01*
X112071429Y-76452381D01*
X112166667Y-76452381D01*
X112309524Y-76500000D01*
X112357143Y-76547619D01*
X112738095Y-76547619D02*
X112785714Y-76500000D01*
X112880952Y-76452381D01*
X113119048Y-76452381D01*
X113214286Y-76500000D01*
X113261905Y-76547619D01*
X113309524Y-76642857D01*
X113309524Y-76738095D01*
X113261905Y-76880952D01*
X112690476Y-77452381D01*
X113309524Y-77452381D01*
X114166667Y-76785714D02*
X114166667Y-77452381D01*
X113928571Y-76404762D02*
X113690476Y-77119048D01*
X114309524Y-77119048D01*
X129357143Y-60357143D02*
X129309524Y-60404762D01*
X129166667Y-60452381D01*
X129071429Y-60452381D01*
X128928571Y-60404762D01*
X128833333Y-60309524D01*
X128785714Y-60214286D01*
X128738095Y-60023810D01*
X128738095Y-59880952D01*
X128785714Y-59690476D01*
X128833333Y-59595238D01*
X128928571Y-59500000D01*
X129071429Y-59452381D01*
X129166667Y-59452381D01*
X129309524Y-59500000D01*
X129357143Y-59547619D01*
X129738095Y-59547619D02*
X129785714Y-59500000D01*
X129880952Y-59452381D01*
X130119048Y-59452381D01*
X130214286Y-59500000D01*
X130261905Y-59547619D01*
X130309524Y-59642857D01*
X130309524Y-59738095D01*
X130261905Y-59880952D01*
X129690476Y-60452381D01*
X130309524Y-60452381D01*
X131214286Y-59452381D02*
X130738095Y-59452381D01*
X130690476Y-59928571D01*
X130738095Y-59880952D01*
X130833333Y-59833333D01*
X131071429Y-59833333D01*
X131166667Y-59880952D01*
X131214286Y-59928571D01*
X131261905Y-60023810D01*
X131261905Y-60261905D01*
X131214286Y-60357143D01*
X131166667Y-60404762D01*
X131071429Y-60452381D01*
X130833333Y-60452381D01*
X130738095Y-60404762D01*
X130690476Y-60357143D01*
X163357143Y-128357143D02*
X163309524Y-128404762D01*
X163166667Y-128452381D01*
X163071429Y-128452381D01*
X162928571Y-128404762D01*
X162833333Y-128309524D01*
X162785714Y-128214286D01*
X162738095Y-128023810D01*
X162738095Y-127880952D01*
X162785714Y-127690476D01*
X162833333Y-127595238D01*
X162928571Y-127500000D01*
X163071429Y-127452381D01*
X163166667Y-127452381D01*
X163309524Y-127500000D01*
X163357143Y-127547619D01*
X163738095Y-127547619D02*
X163785714Y-127500000D01*
X163880952Y-127452381D01*
X164119048Y-127452381D01*
X164214286Y-127500000D01*
X164261905Y-127547619D01*
X164309524Y-127642857D01*
X164309524Y-127738095D01*
X164261905Y-127880952D01*
X163690476Y-128452381D01*
X164309524Y-128452381D01*
X165166667Y-127452381D02*
X164976190Y-127452381D01*
X164880952Y-127500000D01*
X164833333Y-127547619D01*
X164738095Y-127690476D01*
X164690476Y-127880952D01*
X164690476Y-128261905D01*
X164738095Y-128357143D01*
X164785714Y-128404762D01*
X164880952Y-128452381D01*
X165071429Y-128452381D01*
X165166667Y-128404762D01*
X165214286Y-128357143D01*
X165261905Y-128261905D01*
X165261905Y-128023810D01*
X165214286Y-127928571D01*
X165166667Y-127880952D01*
X165071429Y-127833333D01*
X164880952Y-127833333D01*
X164785714Y-127880952D01*
X164738095Y-127928571D01*
X164690476Y-128023810D01*
X180357143Y-111357143D02*
X180309524Y-111404762D01*
X180166667Y-111452381D01*
X180071429Y-111452381D01*
X179928571Y-111404762D01*
X179833333Y-111309524D01*
X179785714Y-111214286D01*
X179738095Y-111023810D01*
X179738095Y-110880952D01*
X179785714Y-110690476D01*
X179833333Y-110595238D01*
X179928571Y-110500000D01*
X180071429Y-110452381D01*
X180166667Y-110452381D01*
X180309524Y-110500000D01*
X180357143Y-110547619D01*
X180738095Y-110547619D02*
X180785714Y-110500000D01*
X180880952Y-110452381D01*
X181119048Y-110452381D01*
X181214286Y-110500000D01*
X181261905Y-110547619D01*
X181309524Y-110642857D01*
X181309524Y-110738095D01*
X181261905Y-110880952D01*
X180690476Y-111452381D01*
X181309524Y-111452381D01*
X181642857Y-110452381D02*
X182309524Y-110452381D01*
X181880952Y-111452381D01*
X180357143Y-128357143D02*
X180309524Y-128404762D01*
X180166667Y-128452381D01*
X180071429Y-128452381D01*
X179928571Y-128404762D01*
X179833333Y-128309524D01*
X179785714Y-128214286D01*
X179738095Y-128023810D01*
X179738095Y-127880952D01*
X179785714Y-127690476D01*
X179833333Y-127595238D01*
X179928571Y-127500000D01*
X180071429Y-127452381D01*
X180166667Y-127452381D01*
X180309524Y-127500000D01*
X180357143Y-127547619D01*
X180738095Y-127547619D02*
X180785714Y-127500000D01*
X180880952Y-127452381D01*
X181119048Y-127452381D01*
X181214286Y-127500000D01*
X181261905Y-127547619D01*
X181309524Y-127642857D01*
X181309524Y-127738095D01*
X181261905Y-127880952D01*
X180690476Y-128452381D01*
X181309524Y-128452381D01*
X181880952Y-127880952D02*
X181785714Y-127833333D01*
X181738095Y-127785714D01*
X181690476Y-127690476D01*
X181690476Y-127642857D01*
X181738095Y-127547619D01*
X181785714Y-127500000D01*
X181880952Y-127452381D01*
X182071429Y-127452381D01*
X182166667Y-127500000D01*
X182214286Y-127547619D01*
X182261905Y-127642857D01*
X182261905Y-127690476D01*
X182214286Y-127785714D01*
X182166667Y-127833333D01*
X182071429Y-127880952D01*
X181880952Y-127880952D01*
X181785714Y-127928571D01*
X181738095Y-127976190D01*
X181690476Y-128071429D01*
X181690476Y-128261905D01*
X181738095Y-128357143D01*
X181785714Y-128404762D01*
X181880952Y-128452381D01*
X182071429Y-128452381D01*
X182166667Y-128404762D01*
X182214286Y-128357143D01*
X182261905Y-128261905D01*
X182261905Y-128071429D01*
X182214286Y-127976190D01*
X182166667Y-127928571D01*
X182071429Y-127880952D01*
X180357143Y-145357143D02*
X180309524Y-145404762D01*
X180166667Y-145452381D01*
X180071429Y-145452381D01*
X179928571Y-145404762D01*
X179833333Y-145309524D01*
X179785714Y-145214286D01*
X179738095Y-145023810D01*
X179738095Y-144880952D01*
X179785714Y-144690476D01*
X179833333Y-144595238D01*
X179928571Y-144500000D01*
X180071429Y-144452381D01*
X180166667Y-144452381D01*
X180309524Y-144500000D01*
X180357143Y-144547619D01*
X180738095Y-144547619D02*
X180785714Y-144500000D01*
X180880952Y-144452381D01*
X181119048Y-144452381D01*
X181214286Y-144500000D01*
X181261905Y-144547619D01*
X181309524Y-144642857D01*
X181309524Y-144738095D01*
X181261905Y-144880952D01*
X180690476Y-145452381D01*
X181309524Y-145452381D01*
X181785714Y-145452381D02*
X181976190Y-145452381D01*
X182071429Y-145404762D01*
X182119048Y-145357143D01*
X182214286Y-145214286D01*
X182261905Y-145023810D01*
X182261905Y-144642857D01*
X182214286Y-144547619D01*
X182166667Y-144500000D01*
X182071429Y-144452381D01*
X181880952Y-144452381D01*
X181785714Y-144500000D01*
X181738095Y-144547619D01*
X181690476Y-144642857D01*
X181690476Y-144880952D01*
X181738095Y-144976190D01*
X181785714Y-145023810D01*
X181880952Y-145071429D01*
X182071429Y-145071429D01*
X182166667Y-145023810D01*
X182214286Y-144976190D01*
X182261905Y-144880952D01*
X197357143Y-128357143D02*
X197309524Y-128404762D01*
X197166667Y-128452381D01*
X197071429Y-128452381D01*
X196928571Y-128404762D01*
X196833333Y-128309524D01*
X196785714Y-128214286D01*
X196738095Y-128023810D01*
X196738095Y-127880952D01*
X196785714Y-127690476D01*
X196833333Y-127595238D01*
X196928571Y-127500000D01*
X197071429Y-127452381D01*
X197166667Y-127452381D01*
X197309524Y-127500000D01*
X197357143Y-127547619D01*
X197690476Y-127452381D02*
X198309524Y-127452381D01*
X197976190Y-127833333D01*
X198119048Y-127833333D01*
X198214286Y-127880952D01*
X198261905Y-127928571D01*
X198309524Y-128023810D01*
X198309524Y-128261905D01*
X198261905Y-128357143D01*
X198214286Y-128404762D01*
X198119048Y-128452381D01*
X197833333Y-128452381D01*
X197738095Y-128404762D01*
X197690476Y-128357143D01*
X198928571Y-127452381D02*
X199023810Y-127452381D01*
X199119048Y-127500000D01*
X199166667Y-127547619D01*
X199214286Y-127642857D01*
X199261905Y-127833333D01*
X199261905Y-128071429D01*
X199214286Y-128261905D01*
X199166667Y-128357143D01*
X199119048Y-128404762D01*
X199023810Y-128452381D01*
X198928571Y-128452381D01*
X198833333Y-128404762D01*
X198785714Y-128357143D01*
X198738095Y-128261905D01*
X198690476Y-128071429D01*
X198690476Y-127833333D01*
X198738095Y-127642857D01*
X198785714Y-127547619D01*
X198833333Y-127500000D01*
X198928571Y-127452381D01*
X193167327Y-90954521D02*
X193167327Y-91668807D01*
X193119707Y-91811664D01*
X193024469Y-91906902D01*
X192881612Y-91954521D01*
X192786374Y-91954521D01*
X193643517Y-91954521D02*
X193643517Y-90954521D01*
X194024470Y-90954521D01*
X194119708Y-91002140D01*
X194167327Y-91049759D01*
X194214946Y-91144997D01*
X194214946Y-91287854D01*
X194167327Y-91383092D01*
X194119708Y-91430711D01*
X194024470Y-91478330D01*
X193643517Y-91478330D01*
X195167327Y-91954521D02*
X194595898Y-91954521D01*
X194881612Y-91954521D02*
X194881612Y-90954521D01*
X194786374Y-91097378D01*
X194691136Y-91192616D01*
X194595898Y-91240235D01*
X149131905Y-90072381D02*
X149131905Y-89072381D01*
X149512858Y-89072381D01*
X149608096Y-89120000D01*
X149655715Y-89167619D01*
X149703334Y-89262857D01*
X149703334Y-89405714D01*
X149655715Y-89500952D01*
X149608096Y-89548571D01*
X149512858Y-89596190D01*
X149131905Y-89596190D01*
X150655715Y-90072381D02*
X150084286Y-90072381D01*
X150370000Y-90072381D02*
X150370000Y-89072381D01*
X150274762Y-89215238D01*
X150179524Y-89310476D01*
X150084286Y-89358095D01*
X166404762Y-93047619D02*
X166309524Y-93000000D01*
X166214286Y-92904762D01*
X166071429Y-92761905D01*
X165976190Y-92714286D01*
X165880952Y-92714286D01*
X165928571Y-92952381D02*
X165833333Y-92904762D01*
X165738095Y-92809524D01*
X165690476Y-92619048D01*
X165690476Y-92285714D01*
X165738095Y-92095238D01*
X165833333Y-92000000D01*
X165928571Y-91952381D01*
X166119048Y-91952381D01*
X166214286Y-92000000D01*
X166309524Y-92095238D01*
X166357143Y-92285714D01*
X166357143Y-92619048D01*
X166309524Y-92809524D01*
X166214286Y-92904762D01*
X166119048Y-92952381D01*
X165928571Y-92952381D01*
X167309524Y-92952381D02*
X166738095Y-92952381D01*
X167023809Y-92952381D02*
X167023809Y-91952381D01*
X166928571Y-92095238D01*
X166833333Y-92190476D01*
X166738095Y-92238095D01*
X199833994Y-89554521D02*
X199500660Y-89078330D01*
X199262565Y-89554521D02*
X199262565Y-88554521D01*
X199643518Y-88554521D01*
X199738756Y-88602140D01*
X199786375Y-88649759D01*
X199833994Y-88744997D01*
X199833994Y-88887854D01*
X199786375Y-88983092D01*
X199738756Y-89030711D01*
X199643518Y-89078330D01*
X199262565Y-89078330D01*
X200786375Y-89554521D02*
X200214946Y-89554521D01*
X200500660Y-89554521D02*
X200500660Y-88554521D01*
X200405422Y-88697378D01*
X200310184Y-88792616D01*
X200214946Y-88840235D01*
X124995994Y-125198521D02*
X124662660Y-124722330D01*
X124424565Y-125198521D02*
X124424565Y-124198521D01*
X124805518Y-124198521D01*
X124900756Y-124246140D01*
X124948375Y-124293759D01*
X124995994Y-124388997D01*
X124995994Y-124531854D01*
X124948375Y-124627092D01*
X124900756Y-124674711D01*
X124805518Y-124722330D01*
X124424565Y-124722330D01*
X125329327Y-124198521D02*
X125948375Y-124198521D01*
X125615041Y-124579473D01*
X125757899Y-124579473D01*
X125853137Y-124627092D01*
X125900756Y-124674711D01*
X125948375Y-124769950D01*
X125948375Y-125008045D01*
X125900756Y-125103283D01*
X125853137Y-125150902D01*
X125757899Y-125198521D01*
X125472184Y-125198521D01*
X125376946Y-125150902D01*
X125329327Y-125103283D01*
X150833334Y-119952381D02*
X150500000Y-119476190D01*
X150261905Y-119952381D02*
X150261905Y-118952381D01*
X150642858Y-118952381D01*
X150738096Y-119000000D01*
X150785715Y-119047619D01*
X150833334Y-119142857D01*
X150833334Y-119285714D01*
X150785715Y-119380952D01*
X150738096Y-119428571D01*
X150642858Y-119476190D01*
X150261905Y-119476190D01*
X151690477Y-119285714D02*
X151690477Y-119952381D01*
X151452381Y-118904762D02*
X151214286Y-119619048D01*
X151833334Y-119619048D01*
X156833334Y-103452381D02*
X156500000Y-102976190D01*
X156261905Y-103452381D02*
X156261905Y-102452381D01*
X156642858Y-102452381D01*
X156738096Y-102500000D01*
X156785715Y-102547619D01*
X156833334Y-102642857D01*
X156833334Y-102785714D01*
X156785715Y-102880952D01*
X156738096Y-102928571D01*
X156642858Y-102976190D01*
X156261905Y-102976190D01*
X157738096Y-102452381D02*
X157261905Y-102452381D01*
X157214286Y-102928571D01*
X157261905Y-102880952D01*
X157357143Y-102833333D01*
X157595239Y-102833333D01*
X157690477Y-102880952D01*
X157738096Y-102928571D01*
X157785715Y-103023810D01*
X157785715Y-103261905D01*
X157738096Y-103357143D01*
X157690477Y-103404762D01*
X157595239Y-103452381D01*
X157357143Y-103452381D01*
X157261905Y-103404762D01*
X157214286Y-103357143D01*
X175833334Y-90952381D02*
X175500000Y-90476190D01*
X175261905Y-90952381D02*
X175261905Y-89952381D01*
X175642858Y-89952381D01*
X175738096Y-90000000D01*
X175785715Y-90047619D01*
X175833334Y-90142857D01*
X175833334Y-90285714D01*
X175785715Y-90380952D01*
X175738096Y-90428571D01*
X175642858Y-90476190D01*
X175261905Y-90476190D01*
X176690477Y-89952381D02*
X176500000Y-89952381D01*
X176404762Y-90000000D01*
X176357143Y-90047619D01*
X176261905Y-90190476D01*
X176214286Y-90380952D01*
X176214286Y-90761905D01*
X176261905Y-90857143D01*
X176309524Y-90904762D01*
X176404762Y-90952381D01*
X176595239Y-90952381D01*
X176690477Y-90904762D01*
X176738096Y-90857143D01*
X176785715Y-90761905D01*
X176785715Y-90523810D01*
X176738096Y-90428571D01*
X176690477Y-90380952D01*
X176595239Y-90333333D01*
X176404762Y-90333333D01*
X176309524Y-90380952D01*
X176261905Y-90428571D01*
X176214286Y-90523810D01*
X150833334Y-97952381D02*
X150500000Y-97476190D01*
X150261905Y-97952381D02*
X150261905Y-96952381D01*
X150642858Y-96952381D01*
X150738096Y-97000000D01*
X150785715Y-97047619D01*
X150833334Y-97142857D01*
X150833334Y-97285714D01*
X150785715Y-97380952D01*
X150738096Y-97428571D01*
X150642858Y-97476190D01*
X150261905Y-97476190D01*
X151166667Y-96952381D02*
X151833334Y-96952381D01*
X151404762Y-97952381D01*
X137833334Y-97952381D02*
X137500000Y-97476190D01*
X137261905Y-97952381D02*
X137261905Y-96952381D01*
X137642858Y-96952381D01*
X137738096Y-97000000D01*
X137785715Y-97047619D01*
X137833334Y-97142857D01*
X137833334Y-97285714D01*
X137785715Y-97380952D01*
X137738096Y-97428571D01*
X137642858Y-97476190D01*
X137261905Y-97476190D01*
X138404762Y-97380952D02*
X138309524Y-97333333D01*
X138261905Y-97285714D01*
X138214286Y-97190476D01*
X138214286Y-97142857D01*
X138261905Y-97047619D01*
X138309524Y-97000000D01*
X138404762Y-96952381D01*
X138595239Y-96952381D01*
X138690477Y-97000000D01*
X138738096Y-97047619D01*
X138785715Y-97142857D01*
X138785715Y-97190476D01*
X138738096Y-97285714D01*
X138690477Y-97333333D01*
X138595239Y-97380952D01*
X138404762Y-97380952D01*
X138309524Y-97428571D01*
X138261905Y-97476190D01*
X138214286Y-97571429D01*
X138214286Y-97761905D01*
X138261905Y-97857143D01*
X138309524Y-97904762D01*
X138404762Y-97952381D01*
X138595239Y-97952381D01*
X138690477Y-97904762D01*
X138738096Y-97857143D01*
X138785715Y-97761905D01*
X138785715Y-97571429D01*
X138738096Y-97476190D01*
X138690477Y-97428571D01*
X138595239Y-97380952D01*
X116272755Y-119880521D02*
X116272755Y-120690045D01*
X116320374Y-120785283D01*
X116367993Y-120832902D01*
X116463231Y-120880521D01*
X116653708Y-120880521D01*
X116748946Y-120832902D01*
X116796565Y-120785283D01*
X116844184Y-120690045D01*
X116844184Y-119880521D01*
X117844184Y-120880521D02*
X117272755Y-120880521D01*
X117558469Y-120880521D02*
X117558469Y-119880521D01*
X117463231Y-120023378D01*
X117367993Y-120118616D01*
X117272755Y-120166235D01*
X150238095Y-105452381D02*
X150238095Y-106261905D01*
X150285714Y-106357143D01*
X150333333Y-106404762D01*
X150428571Y-106452381D01*
X150619048Y-106452381D01*
X150714286Y-106404762D01*
X150761905Y-106357143D01*
X150809524Y-106261905D01*
X150809524Y-105452381D01*
X151238095Y-105547619D02*
X151285714Y-105500000D01*
X151380952Y-105452381D01*
X151619048Y-105452381D01*
X151714286Y-105500000D01*
X151761905Y-105547619D01*
X151809524Y-105642857D01*
X151809524Y-105738095D01*
X151761905Y-105880952D01*
X151190476Y-106452381D01*
X151809524Y-106452381D01*
X95238095Y-38452381D02*
X95238095Y-39261905D01*
X95285714Y-39357143D01*
X95333333Y-39404762D01*
X95428571Y-39452381D01*
X95619048Y-39452381D01*
X95714286Y-39404762D01*
X95761905Y-39357143D01*
X95809524Y-39261905D01*
X95809524Y-38452381D01*
X96190476Y-38452381D02*
X96809524Y-38452381D01*
X96476190Y-38833333D01*
X96619048Y-38833333D01*
X96714286Y-38880952D01*
X96761905Y-38928571D01*
X96809524Y-39023810D01*
X96809524Y-39261905D01*
X96761905Y-39357143D01*
X96714286Y-39404762D01*
X96619048Y-39452381D01*
X96333333Y-39452381D01*
X96238095Y-39404762D01*
X96190476Y-39357143D01*
X95238095Y-72452381D02*
X95238095Y-73261905D01*
X95285714Y-73357143D01*
X95333333Y-73404762D01*
X95428571Y-73452381D01*
X95619048Y-73452381D01*
X95714286Y-73404762D01*
X95761905Y-73357143D01*
X95809524Y-73261905D01*
X95809524Y-72452381D01*
X96714286Y-72785714D02*
X96714286Y-73452381D01*
X96476190Y-72404762D02*
X96238095Y-73119048D01*
X96857143Y-73119048D01*
X95238095Y-106452381D02*
X95238095Y-107261905D01*
X95285714Y-107357143D01*
X95333333Y-107404762D01*
X95428571Y-107452381D01*
X95619048Y-107452381D01*
X95714286Y-107404762D01*
X95761905Y-107357143D01*
X95809524Y-107261905D01*
X95809524Y-106452381D01*
X96761905Y-106452381D02*
X96285714Y-106452381D01*
X96238095Y-106928571D01*
X96285714Y-106880952D01*
X96380952Y-106833333D01*
X96619048Y-106833333D01*
X96714286Y-106880952D01*
X96761905Y-106928571D01*
X96809524Y-107023810D01*
X96809524Y-107261905D01*
X96761905Y-107357143D01*
X96714286Y-107404762D01*
X96619048Y-107452381D01*
X96380952Y-107452381D01*
X96285714Y-107404762D01*
X96238095Y-107357143D01*
X95238095Y-140452381D02*
X95238095Y-141261905D01*
X95285714Y-141357143D01*
X95333333Y-141404762D01*
X95428571Y-141452381D01*
X95619048Y-141452381D01*
X95714286Y-141404762D01*
X95761905Y-141357143D01*
X95809524Y-141261905D01*
X95809524Y-140452381D01*
X96714286Y-140452381D02*
X96523809Y-140452381D01*
X96428571Y-140500000D01*
X96380952Y-140547619D01*
X96285714Y-140690476D01*
X96238095Y-140880952D01*
X96238095Y-141261905D01*
X96285714Y-141357143D01*
X96333333Y-141404762D01*
X96428571Y-141452381D01*
X96619048Y-141452381D01*
X96714286Y-141404762D01*
X96761905Y-141357143D01*
X96809524Y-141261905D01*
X96809524Y-141023810D01*
X96761905Y-140928571D01*
X96714286Y-140880952D01*
X96619048Y-140833333D01*
X96428571Y-140833333D01*
X96333333Y-140880952D01*
X96285714Y-140928571D01*
X96238095Y-141023810D01*
X129238095Y-38452381D02*
X129238095Y-39261905D01*
X129285714Y-39357143D01*
X129333333Y-39404762D01*
X129428571Y-39452381D01*
X129619048Y-39452381D01*
X129714286Y-39404762D01*
X129761905Y-39357143D01*
X129809524Y-39261905D01*
X129809524Y-38452381D01*
X130190476Y-38452381D02*
X130857143Y-38452381D01*
X130428571Y-39452381D01*
X129238095Y-72452381D02*
X129238095Y-73261905D01*
X129285714Y-73357143D01*
X129333333Y-73404762D01*
X129428571Y-73452381D01*
X129619048Y-73452381D01*
X129714286Y-73404762D01*
X129761905Y-73357143D01*
X129809524Y-73261905D01*
X129809524Y-72452381D01*
X130428571Y-72880952D02*
X130333333Y-72833333D01*
X130285714Y-72785714D01*
X130238095Y-72690476D01*
X130238095Y-72642857D01*
X130285714Y-72547619D01*
X130333333Y-72500000D01*
X130428571Y-72452381D01*
X130619048Y-72452381D01*
X130714286Y-72500000D01*
X130761905Y-72547619D01*
X130809524Y-72642857D01*
X130809524Y-72690476D01*
X130761905Y-72785714D01*
X130714286Y-72833333D01*
X130619048Y-72880952D01*
X130428571Y-72880952D01*
X130333333Y-72928571D01*
X130285714Y-72976190D01*
X130238095Y-73071429D01*
X130238095Y-73261905D01*
X130285714Y-73357143D01*
X130333333Y-73404762D01*
X130428571Y-73452381D01*
X130619048Y-73452381D01*
X130714286Y-73404762D01*
X130761905Y-73357143D01*
X130809524Y-73261905D01*
X130809524Y-73071429D01*
X130761905Y-72976190D01*
X130714286Y-72928571D01*
X130619048Y-72880952D01*
X129238095Y-106452381D02*
X129238095Y-107261905D01*
X129285714Y-107357143D01*
X129333333Y-107404762D01*
X129428571Y-107452381D01*
X129619048Y-107452381D01*
X129714286Y-107404762D01*
X129761905Y-107357143D01*
X129809524Y-107261905D01*
X129809524Y-106452381D01*
X130333333Y-107452381D02*
X130523809Y-107452381D01*
X130619048Y-107404762D01*
X130666667Y-107357143D01*
X130761905Y-107214286D01*
X130809524Y-107023810D01*
X130809524Y-106642857D01*
X130761905Y-106547619D01*
X130714286Y-106500000D01*
X130619048Y-106452381D01*
X130428571Y-106452381D01*
X130333333Y-106500000D01*
X130285714Y-106547619D01*
X130238095Y-106642857D01*
X130238095Y-106880952D01*
X130285714Y-106976190D01*
X130333333Y-107023810D01*
X130428571Y-107071429D01*
X130619048Y-107071429D01*
X130714286Y-107023810D01*
X130761905Y-106976190D01*
X130809524Y-106880952D01*
X128761905Y-140452381D02*
X128761905Y-141261905D01*
X128809524Y-141357143D01*
X128857143Y-141404762D01*
X128952381Y-141452381D01*
X129142858Y-141452381D01*
X129238096Y-141404762D01*
X129285715Y-141357143D01*
X129333334Y-141261905D01*
X129333334Y-140452381D01*
X130333334Y-141452381D02*
X129761905Y-141452381D01*
X130047619Y-141452381D02*
X130047619Y-140452381D01*
X129952381Y-140595238D01*
X129857143Y-140690476D01*
X129761905Y-140738095D01*
X130952381Y-140452381D02*
X131047620Y-140452381D01*
X131142858Y-140500000D01*
X131190477Y-140547619D01*
X131238096Y-140642857D01*
X131285715Y-140833333D01*
X131285715Y-141071429D01*
X131238096Y-141261905D01*
X131190477Y-141357143D01*
X131142858Y-141404762D01*
X131047620Y-141452381D01*
X130952381Y-141452381D01*
X130857143Y-141404762D01*
X130809524Y-141357143D01*
X130761905Y-141261905D01*
X130714286Y-141071429D01*
X130714286Y-140833333D01*
X130761905Y-140642857D01*
X130809524Y-140547619D01*
X130857143Y-140500000D01*
X130952381Y-140452381D01*
X162761905Y-38452381D02*
X162761905Y-39261905D01*
X162809524Y-39357143D01*
X162857143Y-39404762D01*
X162952381Y-39452381D01*
X163142858Y-39452381D01*
X163238096Y-39404762D01*
X163285715Y-39357143D01*
X163333334Y-39261905D01*
X163333334Y-38452381D01*
X164333334Y-39452381D02*
X163761905Y-39452381D01*
X164047619Y-39452381D02*
X164047619Y-38452381D01*
X163952381Y-38595238D01*
X163857143Y-38690476D01*
X163761905Y-38738095D01*
X165285715Y-39452381D02*
X164714286Y-39452381D01*
X165000000Y-39452381D02*
X165000000Y-38452381D01*
X164904762Y-38595238D01*
X164809524Y-38690476D01*
X164714286Y-38738095D01*
X162761905Y-72452381D02*
X162761905Y-73261905D01*
X162809524Y-73357143D01*
X162857143Y-73404762D01*
X162952381Y-73452381D01*
X163142858Y-73452381D01*
X163238096Y-73404762D01*
X163285715Y-73357143D01*
X163333334Y-73261905D01*
X163333334Y-72452381D01*
X164333334Y-73452381D02*
X163761905Y-73452381D01*
X164047619Y-73452381D02*
X164047619Y-72452381D01*
X163952381Y-72595238D01*
X163857143Y-72690476D01*
X163761905Y-72738095D01*
X164714286Y-72547619D02*
X164761905Y-72500000D01*
X164857143Y-72452381D01*
X165095239Y-72452381D01*
X165190477Y-72500000D01*
X165238096Y-72547619D01*
X165285715Y-72642857D01*
X165285715Y-72738095D01*
X165238096Y-72880952D01*
X164666667Y-73452381D01*
X165285715Y-73452381D01*
X162761905Y-106452381D02*
X162761905Y-107261905D01*
X162809524Y-107357143D01*
X162857143Y-107404762D01*
X162952381Y-107452381D01*
X163142858Y-107452381D01*
X163238096Y-107404762D01*
X163285715Y-107357143D01*
X163333334Y-107261905D01*
X163333334Y-106452381D01*
X164333334Y-107452381D02*
X163761905Y-107452381D01*
X164047619Y-107452381D02*
X164047619Y-106452381D01*
X163952381Y-106595238D01*
X163857143Y-106690476D01*
X163761905Y-106738095D01*
X164666667Y-106452381D02*
X165285715Y-106452381D01*
X164952381Y-106833333D01*
X165095239Y-106833333D01*
X165190477Y-106880952D01*
X165238096Y-106928571D01*
X165285715Y-107023810D01*
X165285715Y-107261905D01*
X165238096Y-107357143D01*
X165190477Y-107404762D01*
X165095239Y-107452381D01*
X164809524Y-107452381D01*
X164714286Y-107404762D01*
X164666667Y-107357143D01*
X162761905Y-139452381D02*
X162761905Y-140261905D01*
X162809524Y-140357143D01*
X162857143Y-140404762D01*
X162952381Y-140452381D01*
X163142858Y-140452381D01*
X163238096Y-140404762D01*
X163285715Y-140357143D01*
X163333334Y-140261905D01*
X163333334Y-139452381D01*
X164333334Y-140452381D02*
X163761905Y-140452381D01*
X164047619Y-140452381D02*
X164047619Y-139452381D01*
X163952381Y-139595238D01*
X163857143Y-139690476D01*
X163761905Y-139738095D01*
X165190477Y-139785714D02*
X165190477Y-140452381D01*
X164952381Y-139404762D02*
X164714286Y-140119048D01*
X165333334Y-140119048D01*
X196761905Y-38452381D02*
X196761905Y-39261905D01*
X196809524Y-39357143D01*
X196857143Y-39404762D01*
X196952381Y-39452381D01*
X197142858Y-39452381D01*
X197238096Y-39404762D01*
X197285715Y-39357143D01*
X197333334Y-39261905D01*
X197333334Y-38452381D01*
X198333334Y-39452381D02*
X197761905Y-39452381D01*
X198047619Y-39452381D02*
X198047619Y-38452381D01*
X197952381Y-38595238D01*
X197857143Y-38690476D01*
X197761905Y-38738095D01*
X199238096Y-38452381D02*
X198761905Y-38452381D01*
X198714286Y-38928571D01*
X198761905Y-38880952D01*
X198857143Y-38833333D01*
X199095239Y-38833333D01*
X199190477Y-38880952D01*
X199238096Y-38928571D01*
X199285715Y-39023810D01*
X199285715Y-39261905D01*
X199238096Y-39357143D01*
X199190477Y-39404762D01*
X199095239Y-39452381D01*
X198857143Y-39452381D01*
X198761905Y-39404762D01*
X198714286Y-39357143D01*
X196761905Y-72452381D02*
X196761905Y-73261905D01*
X196809524Y-73357143D01*
X196857143Y-73404762D01*
X196952381Y-73452381D01*
X197142858Y-73452381D01*
X197238096Y-73404762D01*
X197285715Y-73357143D01*
X197333334Y-73261905D01*
X197333334Y-72452381D01*
X198333334Y-73452381D02*
X197761905Y-73452381D01*
X198047619Y-73452381D02*
X198047619Y-72452381D01*
X197952381Y-72595238D01*
X197857143Y-72690476D01*
X197761905Y-72738095D01*
X199190477Y-72452381D02*
X199000000Y-72452381D01*
X198904762Y-72500000D01*
X198857143Y-72547619D01*
X198761905Y-72690476D01*
X198714286Y-72880952D01*
X198714286Y-73261905D01*
X198761905Y-73357143D01*
X198809524Y-73404762D01*
X198904762Y-73452381D01*
X199095239Y-73452381D01*
X199190477Y-73404762D01*
X199238096Y-73357143D01*
X199285715Y-73261905D01*
X199285715Y-73023810D01*
X199238096Y-72928571D01*
X199190477Y-72880952D01*
X199095239Y-72833333D01*
X198904762Y-72833333D01*
X198809524Y-72880952D01*
X198761905Y-72928571D01*
X198714286Y-73023810D01*
X196761905Y-106452381D02*
X196761905Y-107261905D01*
X196809524Y-107357143D01*
X196857143Y-107404762D01*
X196952381Y-107452381D01*
X197142858Y-107452381D01*
X197238096Y-107404762D01*
X197285715Y-107357143D01*
X197333334Y-107261905D01*
X197333334Y-106452381D01*
X198333334Y-107452381D02*
X197761905Y-107452381D01*
X198047619Y-107452381D02*
X198047619Y-106452381D01*
X197952381Y-106595238D01*
X197857143Y-106690476D01*
X197761905Y-106738095D01*
X198666667Y-106452381D02*
X199333334Y-106452381D01*
X198904762Y-107452381D01*
X196761905Y-140452381D02*
X196761905Y-141261905D01*
X196809524Y-141357143D01*
X196857143Y-141404762D01*
X196952381Y-141452381D01*
X197142858Y-141452381D01*
X197238096Y-141404762D01*
X197285715Y-141357143D01*
X197333334Y-141261905D01*
X197333334Y-140452381D01*
X198333334Y-141452381D02*
X197761905Y-141452381D01*
X198047619Y-141452381D02*
X198047619Y-140452381D01*
X197952381Y-140595238D01*
X197857143Y-140690476D01*
X197761905Y-140738095D01*
X198904762Y-140880952D02*
X198809524Y-140833333D01*
X198761905Y-140785714D01*
X198714286Y-140690476D01*
X198714286Y-140642857D01*
X198761905Y-140547619D01*
X198809524Y-140500000D01*
X198904762Y-140452381D01*
X199095239Y-140452381D01*
X199190477Y-140500000D01*
X199238096Y-140547619D01*
X199285715Y-140642857D01*
X199285715Y-140690476D01*
X199238096Y-140785714D01*
X199190477Y-140833333D01*
X199095239Y-140880952D01*
X198904762Y-140880952D01*
X198809524Y-140928571D01*
X198761905Y-140976190D01*
X198714286Y-141071429D01*
X198714286Y-141261905D01*
X198761905Y-141357143D01*
X198809524Y-141404762D01*
X198904762Y-141452381D01*
X199095239Y-141452381D01*
X199190477Y-141404762D01*
X199238096Y-141357143D01*
X199285715Y-141261905D01*
X199285715Y-141071429D01*
X199238096Y-140976190D01*
X199190477Y-140928571D01*
X199095239Y-140880952D01*
X93761905Y-55452381D02*
X93761905Y-56261905D01*
X93809524Y-56357143D01*
X93857143Y-56404762D01*
X93952381Y-56452381D01*
X94142858Y-56452381D01*
X94238096Y-56404762D01*
X94285715Y-56357143D01*
X94333334Y-56261905D01*
X94333334Y-55452381D01*
X95333334Y-56452381D02*
X94761905Y-56452381D01*
X95047619Y-56452381D02*
X95047619Y-55452381D01*
X94952381Y-55595238D01*
X94857143Y-55690476D01*
X94761905Y-55738095D01*
X95809524Y-56452381D02*
X96000000Y-56452381D01*
X96095239Y-56404762D01*
X96142858Y-56357143D01*
X96238096Y-56214286D01*
X96285715Y-56023810D01*
X96285715Y-55642857D01*
X96238096Y-55547619D01*
X96190477Y-55500000D01*
X96095239Y-55452381D01*
X95904762Y-55452381D01*
X95809524Y-55500000D01*
X95761905Y-55547619D01*
X95714286Y-55642857D01*
X95714286Y-55880952D01*
X95761905Y-55976190D01*
X95809524Y-56023810D01*
X95904762Y-56071429D01*
X96095239Y-56071429D01*
X96190477Y-56023810D01*
X96238096Y-55976190D01*
X96285715Y-55880952D01*
X111761905Y-38452381D02*
X111761905Y-39261905D01*
X111809524Y-39357143D01*
X111857143Y-39404762D01*
X111952381Y-39452381D01*
X112142858Y-39452381D01*
X112238096Y-39404762D01*
X112285715Y-39357143D01*
X112333334Y-39261905D01*
X112333334Y-38452381D01*
X112761905Y-38547619D02*
X112809524Y-38500000D01*
X112904762Y-38452381D01*
X113142858Y-38452381D01*
X113238096Y-38500000D01*
X113285715Y-38547619D01*
X113333334Y-38642857D01*
X113333334Y-38738095D01*
X113285715Y-38880952D01*
X112714286Y-39452381D01*
X113333334Y-39452381D01*
X113952381Y-38452381D02*
X114047620Y-38452381D01*
X114142858Y-38500000D01*
X114190477Y-38547619D01*
X114238096Y-38642857D01*
X114285715Y-38833333D01*
X114285715Y-39071429D01*
X114238096Y-39261905D01*
X114190477Y-39357143D01*
X114142858Y-39404762D01*
X114047620Y-39452381D01*
X113952381Y-39452381D01*
X113857143Y-39404762D01*
X113809524Y-39357143D01*
X113761905Y-39261905D01*
X113714286Y-39071429D01*
X113714286Y-38833333D01*
X113761905Y-38642857D01*
X113809524Y-38547619D01*
X113857143Y-38500000D01*
X113952381Y-38452381D01*
X111761905Y-55452381D02*
X111761905Y-56261905D01*
X111809524Y-56357143D01*
X111857143Y-56404762D01*
X111952381Y-56452381D01*
X112142858Y-56452381D01*
X112238096Y-56404762D01*
X112285715Y-56357143D01*
X112333334Y-56261905D01*
X112333334Y-55452381D01*
X112761905Y-55547619D02*
X112809524Y-55500000D01*
X112904762Y-55452381D01*
X113142858Y-55452381D01*
X113238096Y-55500000D01*
X113285715Y-55547619D01*
X113333334Y-55642857D01*
X113333334Y-55738095D01*
X113285715Y-55880952D01*
X112714286Y-56452381D01*
X113333334Y-56452381D01*
X114285715Y-56452381D02*
X113714286Y-56452381D01*
X114000000Y-56452381D02*
X114000000Y-55452381D01*
X113904762Y-55595238D01*
X113809524Y-55690476D01*
X113714286Y-55738095D01*
X111761905Y-72452381D02*
X111761905Y-73261905D01*
X111809524Y-73357143D01*
X111857143Y-73404762D01*
X111952381Y-73452381D01*
X112142858Y-73452381D01*
X112238096Y-73404762D01*
X112285715Y-73357143D01*
X112333334Y-73261905D01*
X112333334Y-72452381D01*
X112761905Y-72547619D02*
X112809524Y-72500000D01*
X112904762Y-72452381D01*
X113142858Y-72452381D01*
X113238096Y-72500000D01*
X113285715Y-72547619D01*
X113333334Y-72642857D01*
X113333334Y-72738095D01*
X113285715Y-72880952D01*
X112714286Y-73452381D01*
X113333334Y-73452381D01*
X113714286Y-72547619D02*
X113761905Y-72500000D01*
X113857143Y-72452381D01*
X114095239Y-72452381D01*
X114190477Y-72500000D01*
X114238096Y-72547619D01*
X114285715Y-72642857D01*
X114285715Y-72738095D01*
X114238096Y-72880952D01*
X113666667Y-73452381D01*
X114285715Y-73452381D01*
X128761905Y-55452381D02*
X128761905Y-56261905D01*
X128809524Y-56357143D01*
X128857143Y-56404762D01*
X128952381Y-56452381D01*
X129142858Y-56452381D01*
X129238096Y-56404762D01*
X129285715Y-56357143D01*
X129333334Y-56261905D01*
X129333334Y-55452381D01*
X129761905Y-55547619D02*
X129809524Y-55500000D01*
X129904762Y-55452381D01*
X130142858Y-55452381D01*
X130238096Y-55500000D01*
X130285715Y-55547619D01*
X130333334Y-55642857D01*
X130333334Y-55738095D01*
X130285715Y-55880952D01*
X129714286Y-56452381D01*
X130333334Y-56452381D01*
X130666667Y-55452381D02*
X131285715Y-55452381D01*
X130952381Y-55833333D01*
X131095239Y-55833333D01*
X131190477Y-55880952D01*
X131238096Y-55928571D01*
X131285715Y-56023810D01*
X131285715Y-56261905D01*
X131238096Y-56357143D01*
X131190477Y-56404762D01*
X131095239Y-56452381D01*
X130809524Y-56452381D01*
X130714286Y-56404762D01*
X130666667Y-56357143D01*
X162761905Y-123452381D02*
X162761905Y-124261905D01*
X162809524Y-124357143D01*
X162857143Y-124404762D01*
X162952381Y-124452381D01*
X163142858Y-124452381D01*
X163238096Y-124404762D01*
X163285715Y-124357143D01*
X163333334Y-124261905D01*
X163333334Y-123452381D01*
X163761905Y-123547619D02*
X163809524Y-123500000D01*
X163904762Y-123452381D01*
X164142858Y-123452381D01*
X164238096Y-123500000D01*
X164285715Y-123547619D01*
X164333334Y-123642857D01*
X164333334Y-123738095D01*
X164285715Y-123880952D01*
X163714286Y-124452381D01*
X164333334Y-124452381D01*
X165190477Y-123785714D02*
X165190477Y-124452381D01*
X164952381Y-123404762D02*
X164714286Y-124119048D01*
X165333334Y-124119048D01*
X179761905Y-106452381D02*
X179761905Y-107261905D01*
X179809524Y-107357143D01*
X179857143Y-107404762D01*
X179952381Y-107452381D01*
X180142858Y-107452381D01*
X180238096Y-107404762D01*
X180285715Y-107357143D01*
X180333334Y-107261905D01*
X180333334Y-106452381D01*
X180761905Y-106547619D02*
X180809524Y-106500000D01*
X180904762Y-106452381D01*
X181142858Y-106452381D01*
X181238096Y-106500000D01*
X181285715Y-106547619D01*
X181333334Y-106642857D01*
X181333334Y-106738095D01*
X181285715Y-106880952D01*
X180714286Y-107452381D01*
X181333334Y-107452381D01*
X182238096Y-106452381D02*
X181761905Y-106452381D01*
X181714286Y-106928571D01*
X181761905Y-106880952D01*
X181857143Y-106833333D01*
X182095239Y-106833333D01*
X182190477Y-106880952D01*
X182238096Y-106928571D01*
X182285715Y-107023810D01*
X182285715Y-107261905D01*
X182238096Y-107357143D01*
X182190477Y-107404762D01*
X182095239Y-107452381D01*
X181857143Y-107452381D01*
X181761905Y-107404762D01*
X181714286Y-107357143D01*
X179761905Y-123452381D02*
X179761905Y-124261905D01*
X179809524Y-124357143D01*
X179857143Y-124404762D01*
X179952381Y-124452381D01*
X180142858Y-124452381D01*
X180238096Y-124404762D01*
X180285715Y-124357143D01*
X180333334Y-124261905D01*
X180333334Y-123452381D01*
X180761905Y-123547619D02*
X180809524Y-123500000D01*
X180904762Y-123452381D01*
X181142858Y-123452381D01*
X181238096Y-123500000D01*
X181285715Y-123547619D01*
X181333334Y-123642857D01*
X181333334Y-123738095D01*
X181285715Y-123880952D01*
X180714286Y-124452381D01*
X181333334Y-124452381D01*
X182190477Y-123452381D02*
X182000000Y-123452381D01*
X181904762Y-123500000D01*
X181857143Y-123547619D01*
X181761905Y-123690476D01*
X181714286Y-123880952D01*
X181714286Y-124261905D01*
X181761905Y-124357143D01*
X181809524Y-124404762D01*
X181904762Y-124452381D01*
X182095239Y-124452381D01*
X182190477Y-124404762D01*
X182238096Y-124357143D01*
X182285715Y-124261905D01*
X182285715Y-124023810D01*
X182238096Y-123928571D01*
X182190477Y-123880952D01*
X182095239Y-123833333D01*
X181904762Y-123833333D01*
X181809524Y-123880952D01*
X181761905Y-123928571D01*
X181714286Y-124023810D01*
X179761905Y-140452381D02*
X179761905Y-141261905D01*
X179809524Y-141357143D01*
X179857143Y-141404762D01*
X179952381Y-141452381D01*
X180142858Y-141452381D01*
X180238096Y-141404762D01*
X180285715Y-141357143D01*
X180333334Y-141261905D01*
X180333334Y-140452381D01*
X180761905Y-140547619D02*
X180809524Y-140500000D01*
X180904762Y-140452381D01*
X181142858Y-140452381D01*
X181238096Y-140500000D01*
X181285715Y-140547619D01*
X181333334Y-140642857D01*
X181333334Y-140738095D01*
X181285715Y-140880952D01*
X180714286Y-141452381D01*
X181333334Y-141452381D01*
X181666667Y-140452381D02*
X182333334Y-140452381D01*
X181904762Y-141452381D01*
X196761905Y-123452381D02*
X196761905Y-124261905D01*
X196809524Y-124357143D01*
X196857143Y-124404762D01*
X196952381Y-124452381D01*
X197142858Y-124452381D01*
X197238096Y-124404762D01*
X197285715Y-124357143D01*
X197333334Y-124261905D01*
X197333334Y-123452381D01*
X197761905Y-123547619D02*
X197809524Y-123500000D01*
X197904762Y-123452381D01*
X198142858Y-123452381D01*
X198238096Y-123500000D01*
X198285715Y-123547619D01*
X198333334Y-123642857D01*
X198333334Y-123738095D01*
X198285715Y-123880952D01*
X197714286Y-124452381D01*
X198333334Y-124452381D01*
X198904762Y-123880952D02*
X198809524Y-123833333D01*
X198761905Y-123785714D01*
X198714286Y-123690476D01*
X198714286Y-123642857D01*
X198761905Y-123547619D01*
X198809524Y-123500000D01*
X198904762Y-123452381D01*
X199095239Y-123452381D01*
X199190477Y-123500000D01*
X199238096Y-123547619D01*
X199285715Y-123642857D01*
X199285715Y-123690476D01*
X199238096Y-123785714D01*
X199190477Y-123833333D01*
X199095239Y-123880952D01*
X198904762Y-123880952D01*
X198809524Y-123928571D01*
X198761905Y-123976190D01*
X198714286Y-124071429D01*
X198714286Y-124261905D01*
X198761905Y-124357143D01*
X198809524Y-124404762D01*
X198904762Y-124452381D01*
X199095239Y-124452381D01*
X199190477Y-124404762D01*
X199238096Y-124357143D01*
X199285715Y-124261905D01*
X199285715Y-124071429D01*
X199238096Y-123976190D01*
X199190477Y-123928571D01*
X199095239Y-123880952D01*
X142357143Y-95452381D02*
X141880952Y-95452381D01*
X141880952Y-94452381D01*
X142642857Y-95404762D02*
X142785714Y-95452381D01*
X143023810Y-95452381D01*
X143119048Y-95404762D01*
X143166667Y-95357143D01*
X143214286Y-95261905D01*
X143214286Y-95166667D01*
X143166667Y-95071429D01*
X143119048Y-95023810D01*
X143023810Y-94976190D01*
X142833333Y-94928571D01*
X142738095Y-94880952D01*
X142690476Y-94833333D01*
X142642857Y-94738095D01*
X142642857Y-94642857D01*
X142690476Y-94547619D01*
X142738095Y-94500000D01*
X142833333Y-94452381D01*
X143071429Y-94452381D01*
X143214286Y-94500000D01*
X144166667Y-95452381D02*
X143595238Y-95452381D01*
X143880952Y-95452381D02*
X143880952Y-94452381D01*
X143785714Y-94595238D01*
X143690476Y-94690476D01*
X143595238Y-94738095D01*
X178856334Y-76596781D02*
X178523000Y-76120590D01*
X178284905Y-76596781D02*
X178284905Y-75596781D01*
X178665858Y-75596781D01*
X178761096Y-75644400D01*
X178808715Y-75692019D01*
X178856334Y-75787257D01*
X178856334Y-75930114D01*
X178808715Y-76025352D01*
X178761096Y-76072971D01*
X178665858Y-76120590D01*
X178284905Y-76120590D01*
X179332524Y-76596781D02*
X179523000Y-76596781D01*
X179618239Y-76549162D01*
X179665858Y-76501543D01*
X179761096Y-76358686D01*
X179808715Y-76168210D01*
X179808715Y-75787257D01*
X179761096Y-75692019D01*
X179713477Y-75644400D01*
X179618239Y-75596781D01*
X179427762Y-75596781D01*
X179332524Y-75644400D01*
X179284905Y-75692019D01*
X179237286Y-75787257D01*
X179237286Y-76025352D01*
X179284905Y-76120590D01*
X179332524Y-76168210D01*
X179427762Y-76215829D01*
X179618239Y-76215829D01*
X179713477Y-76168210D01*
X179761096Y-76120590D01*
X179808715Y-76025352D01*
X127257803Y-113354521D02*
X126924469Y-112878330D01*
X126686374Y-113354521D02*
X126686374Y-112354521D01*
X127067327Y-112354521D01*
X127162565Y-112402140D01*
X127210184Y-112449759D01*
X127257803Y-112544997D01*
X127257803Y-112687854D01*
X127210184Y-112783092D01*
X127162565Y-112830711D01*
X127067327Y-112878330D01*
X126686374Y-112878330D01*
X128210184Y-113354521D02*
X127638755Y-113354521D01*
X127924469Y-113354521D02*
X127924469Y-112354521D01*
X127829231Y-112497378D01*
X127733993Y-112592616D01*
X127638755Y-112640235D01*
X128829231Y-112354521D02*
X128924470Y-112354521D01*
X129019708Y-112402140D01*
X129067327Y-112449759D01*
X129114946Y-112544997D01*
X129162565Y-112735473D01*
X129162565Y-112973569D01*
X129114946Y-113164045D01*
X129067327Y-113259283D01*
X129019708Y-113306902D01*
X128924470Y-113354521D01*
X128829231Y-113354521D01*
X128733993Y-113306902D01*
X128686374Y-113259283D01*
X128638755Y-113164045D01*
X128591136Y-112973569D01*
X128591136Y-112735473D01*
X128638755Y-112544997D01*
X128686374Y-112449759D01*
X128733993Y-112402140D01*
X128829231Y-112354521D01*
X123357803Y-113354521D02*
X123024469Y-112878330D01*
X122786374Y-113354521D02*
X122786374Y-112354521D01*
X123167327Y-112354521D01*
X123262565Y-112402140D01*
X123310184Y-112449759D01*
X123357803Y-112544997D01*
X123357803Y-112687854D01*
X123310184Y-112783092D01*
X123262565Y-112830711D01*
X123167327Y-112878330D01*
X122786374Y-112878330D01*
X124310184Y-113354521D02*
X123738755Y-113354521D01*
X124024469Y-113354521D02*
X124024469Y-112354521D01*
X123929231Y-112497378D01*
X123833993Y-112592616D01*
X123738755Y-112640235D01*
X125262565Y-113354521D02*
X124691136Y-113354521D01*
X124976850Y-113354521D02*
X124976850Y-112354521D01*
X124881612Y-112497378D01*
X124786374Y-112592616D01*
X124691136Y-112640235D01*
M02*
